<svg width="21" height="21" viewBox="0 0 21 21" fill="none" xmlns="http://www.w3.org/2000/svg">
<path d="M17.2989 11.3488C17.2989 15.5981 14.3244 17.7227 10.789 18.955C10.6039 19.0178 10.4028 19.0148 10.2196 18.9465C6.67567 17.7227 3.70117 15.5981 3.70117 11.3488V5.39981C3.70117 5.17442 3.79071 4.95825 3.95009 4.79887C4.10947 4.63949 4.32563 4.54995 4.55103 4.54995C6.25074 4.54995 8.37539 3.53013 9.85414 2.23834C10.0342 2.08452 10.2632 2 10.5 2C10.7368 2 10.9659 2.08452 11.1459 2.23834C12.6332 3.53862 14.7493 4.54995 16.449 4.54995C16.6744 4.54995 16.8906 4.63949 17.05 4.79887C17.2094 4.95825 17.2989 5.17442 17.2989 5.39981V11.3488Z" stroke="#6A7A8C" stroke-width="1.3" stroke-linecap="round" stroke-linejoin="round"/>
<path d="M7.95117 10.4974L9.65089 12.1972L13.0503 8.79773" stroke="#6A7A8C" stroke-width="1.3" stroke-linecap="round" stroke-linejoin="round"/>
</svg>
