<svg width="21" height="21" viewBox="0 0 21 21" fill="none" xmlns="http://www.w3.org/2000/svg">
<path d="M2.59961 17.4372C2.5997 16.4274 2.83815 15.4318 3.29556 14.5314C3.75297 13.6311 4.41643 12.8514 5.23198 12.2558C6.04753 11.6602 6.99213 11.2655 7.98898 11.1038C8.98583 10.9421 10.0068 11.0179 10.9688 11.3252" stroke="#6A7A8C" stroke-width="1.3" stroke-linecap="round" stroke-linejoin="round"/>
<path d="M9.01639 11.0211C11.2313 11.0211 13.0269 9.22548 13.0269 7.01053C13.0269 4.79557 11.2313 3 9.01639 3C6.80143 3 5.00586 4.79557 5.00586 7.01053C5.00586 9.22548 6.80143 11.0211 9.01639 11.0211Z" stroke="#6A7A8C" stroke-width="1.3" stroke-linecap="round" stroke-linejoin="round"/>
<path d="M15.4337 17.4379C16.7626 17.4379 17.84 16.3605 17.84 15.0316C17.84 13.7026 16.7626 12.6252 15.4337 12.6252C14.1047 12.6252 13.0273 13.7026 13.0273 15.0316C13.0273 16.3605 14.1047 17.4379 15.4337 17.4379Z" stroke="#6A7A8C" stroke-width="1.3" stroke-linecap="round" stroke-linejoin="round"/>
<path d="M16.6363 12.0645L16.3154 12.7863" stroke="#6A7A8C" stroke-width="1.3" stroke-linecap="round" stroke-linejoin="round"/>
<path d="M14.5513 17.2781L14.2305 18" stroke="#6A7A8C" stroke-width="1.3" stroke-linecap="round" stroke-linejoin="round"/>
<path d="M18.4006 16.2344L17.6787 15.9136" stroke="#6A7A8C" stroke-width="1.3" stroke-linecap="round" stroke-linejoin="round"/>
<path d="M13.1877 14.1492L12.4658 13.8284" stroke="#6A7A8C" stroke-width="1.3" stroke-linecap="round" stroke-linejoin="round"/>
<path d="M18.4006 13.8284L17.6787 14.1492" stroke="#6A7A8C" stroke-width="1.3" stroke-linecap="round" stroke-linejoin="round"/>
<path d="M13.1877 15.9136L12.4658 16.2344" stroke="#6A7A8C" stroke-width="1.3" stroke-linecap="round" stroke-linejoin="round"/>
<path d="M16.6363 18L16.3154 17.2781" stroke="#6A7A8C" stroke-width="1.3" stroke-linecap="round" stroke-linejoin="round"/>
<path d="M14.5513 12.7863L14.2305 12.0645" stroke="#6A7A8C" stroke-width="1.3" stroke-linecap="round" stroke-linejoin="round"/>
</svg>
