<svg width="22" height="21" viewBox="0 0 22 21" fill="none" xmlns="http://www.w3.org/2000/svg">
<path d="M5.75 2.25016V0.75" stroke="white" stroke-width="1.5" stroke-linecap="round"/>
<path d="M15.75 2.25016V0.75" stroke="white" stroke-width="1.5" stroke-linecap="round"/>
<path d="M1.25 7.24927H20.25" stroke="white" stroke-width="1.5" stroke-linecap="round"/>
<path d="M0.75 10.2481C0.75 6.47651 0.75 4.59071 1.92157 3.41901C3.09315 2.24731 4.97876 2.24731 8.75 2.24731H12.75C16.5212 2.24731 18.4069 2.24731 19.5784 3.41901C20.75 4.59071 20.75 6.47651 20.75 10.2481V12.2484C20.75 16.0199 20.75 17.9058 19.5784 19.0775C18.4069 20.2492 16.5212 20.2492 12.75 20.2492H8.75C4.97876 20.2492 3.09315 20.2492 1.92157 19.0775C0.75 17.9058 0.75 16.0199 0.75 12.2484V10.2481Z" stroke="white" stroke-width="1.5"/>
<path d="M16.75 15.2511C16.75 15.8034 16.3023 16.2512 15.75 16.2512C15.1977 16.2512 14.75 15.8034 14.75 15.2511C14.75 14.6987 15.1977 14.251 15.75 14.251C16.3023 14.251 16.75 14.6987 16.75 15.2511Z" fill="white"/>
<path d="M16.75 11.2499C16.75 11.8022 16.3023 12.25 15.75 12.25C15.1977 12.25 14.75 11.8022 14.75 11.2499C14.75 10.6975 15.1977 10.2498 15.75 10.2498C16.3023 10.2498 16.75 10.6975 16.75 11.2499Z" fill="white"/>
<path d="M11.75 15.2511C11.75 15.8034 11.3023 16.2512 10.75 16.2512C10.1977 16.2512 9.75 15.8034 9.75 15.2511C9.75 14.6987 10.1977 14.251 10.75 14.251C11.3023 14.251 11.75 14.6987 11.75 15.2511Z" fill="white"/>
<path d="M11.75 11.2499C11.75 11.8022 11.3023 12.25 10.75 12.25C10.1977 12.25 9.75 11.8022 9.75 11.2499C9.75 10.6975 10.1977 10.2498 10.75 10.2498C11.3023 10.2498 11.75 10.6975 11.75 11.2499Z" fill="white"/>
<path d="M6.75 15.2511C6.75 15.8034 6.30228 16.2512 5.75 16.2512C5.19772 16.2512 4.75 15.8034 4.75 15.2511C4.75 14.6987 5.19772 14.251 5.75 14.251C6.30228 14.251 6.75 14.6987 6.75 15.2511Z" fill="white"/>
<path d="M6.75 11.2499C6.75 11.8022 6.30228 12.25 5.75 12.25C5.19772 12.25 4.75 11.8022 4.75 11.2499C4.75 10.6975 5.19772 10.2498 5.75 10.2498C6.30228 10.2498 6.75 10.6975 6.75 11.2499Z" fill="white"/>
</svg>
