<svg width="150" height="82" viewBox="0 0 150 82" fill="none" xmlns="http://www.w3.org/2000/svg">
<path d="M4 80.1579H0V81H150V1H141.328L123.047 41.0392H116.667L105.469 1H93.8688L84.6094 41.0392H69.6094L60.1427 69.6945H53.6L44.2667 41.0392H35.8594L26.7927 1H15.8594L4 80.1579Z" fill="url(#paint0_linear_544_46626)" fill-opacity="0.12"/>
<path d="M0 81C2.29817 81 4.24956 79.3166 4.58656 77.0432L15.0279 6.60897C15.5056 3.38638 18.2718 1 21.5296 1C24.606 1 27.2708 3.1338 27.9434 6.13573L34.8968 37.169C35.4594 39.6802 37.6886 41.4651 40.262 41.4651C42.6488 41.4651 44.763 43.005 45.4951 45.2768L52.5943 67.3048C53.1937 69.1646 54.9245 70.4253 56.8785 70.4253C58.8256 70.4253 60.5519 69.1734 61.1569 67.3227L67.389 48.2575C68.7135 44.2058 74.0751 41.4651 78.3377 41.4651C82.9331 41.4651 85.3362 38.2887 86.3613 33.8091L92.545 6.78513C93.3195 3.40018 96.331 1 99.8034 1C103.151 1 106.087 3.23388 106.98 6.46013L115.746 38.1385C116.29 40.1041 118.079 41.4651 120.118 41.4651C121.901 41.4651 123.519 40.421 124.253 38.7963L137.758 8.9028C139.931 4.09192 144.721 1 150 1" stroke="#007AFF" stroke-width="2"/>
<defs>
<linearGradient id="paint0_linear_544_46626" x1="75" y1="31.2128" x2="75" y2="81" gradientUnits="userSpaceOnUse">
<stop stop-color="#007AFF"/>
<stop offset="1" stop-color="#E4E5E7" stop-opacity="0"/>
</linearGradient>
</defs>
</svg>
