<svg width="21" height="21" viewBox="0 0 21 21" fill="none" xmlns="http://www.w3.org/2000/svg">
<path d="M12.2705 4.55884C12.2705 4.55884 12.3574 6.03605 13.6609 7.33947C14.9643 8.6429 16.4415 8.72979 16.4415 8.72979" stroke="#6A7A8C" stroke-width="1.3"/>
<path d="M12.9652 3.86384L12.2701 4.55899L5.87911 10.9499C5.44625 11.3828 5.22981 11.5992 5.04367 11.8378C4.82409 12.1194 4.63585 12.424 4.48225 12.7462C4.35204 13.0195 4.25526 13.3099 4.06167 13.8906L3.24136 16.3516L3.04084 16.9531C2.94557 17.2389 3.01995 17.554 3.23297 17.767C3.44599 17.98 3.76108 18.0544 4.04688 17.9592L4.64844 17.7586L7.10938 16.9383C7.69013 16.7447 7.98052 16.648 8.25373 16.5178C8.57601 16.3642 8.8806 16.1759 9.16214 15.9563C9.40079 15.7702 9.61716 15.5537 10.0501 15.1209L16.441 8.72994L17.1361 8.03479C18.2879 6.88301 18.2879 5.01561 17.1361 3.86384C15.9844 2.71205 14.1169 2.71205 12.9652 3.86384Z" stroke="#6A7A8C" stroke-width="1.3"/>
</svg>
