<svg width="39" height="38" viewBox="0 0 39 38" fill="none" xmlns="http://www.w3.org/2000/svg">
<path d="M8.4248 3.15046L7.84961 3.5506C8.23724 3.27551 8.56234 3.06293 8.92496 2.82535C8.94997 2.81285 8.96247 2.80035 8.98748 2.78784L8.4248 3.15046Z" fill="url(#paint0_linear_1186_7264)"/>
<path d="M1.4226 11.7673C1.07249 12.5175 0.884929 13.2553 1.04748 13.2428C1.27256 13.2052 2.19786 11.2796 2.13534 10.8169C2.04781 10.6169 1.69769 11.1545 1.4226 11.7673Z" fill="url(#paint1_linear_1186_7264)"/>
<path d="M0.671792 21.169C0.709304 22.1693 1.12194 22.9571 1.43454 22.657C1.84718 22.2693 1.73464 20.3437 1.17196 19.9435C0.784329 19.781 0.646784 20.5562 0.671792 21.169Z" fill="url(#paint2_linear_1186_7264)"/>
<path d="M13.6012 1.21283C13.3386 1.66299 12.3508 1.97559 12.2883 1.713C12.2508 1.52544 12.7134 1.18783 13.2261 1.02527C13.7888 0.887725 13.6262 1.17532 13.6012 1.21283Z" fill="url(#paint3_linear_1186_7264)"/>
<path d="M13.9135 2.93881C13.901 3.01384 13.851 3.06386 13.751 3.08886C12.7631 3.33895 11.8128 3.61404 10.9 3.91414C10.8125 3.93915 10.775 3.91414 10.7875 3.83912C10.8375 3.66406 10.9 3.5015 10.9501 3.33895C11.2126 2.72624 11.8754 2.18856 12.6756 1.92597C13.4259 1.73841 13.8885 1.93847 13.9135 2.47616C13.926 2.63871 13.9135 2.78876 13.9135 2.93881Z" fill="url(#paint4_linear_1186_7264)"/>
<path d="M16.7895 0.538076C16.9396 0.813169 16.0893 1.10077 15.6017 0.938211C15.3141 0.838177 15.3266 0.638109 15.6267 0.500563C15.7517 0.438042 15.8642 0.413033 15.9518 0.400529C16.4144 0.312999 16.727 0.413033 16.7895 0.538076Z" fill="url(#paint5_linear_1186_7264)"/>
<path d="M18.4273 2.06336C18.4523 2.12588 18.4148 2.16339 18.3148 2.1884C17.277 2.33845 16.2391 2.53852 15.2263 2.75109C15.1263 2.7636 15.0637 2.73859 15.0512 2.67607C15.0387 2.52602 15.0137 2.37596 15.0012 2.23842C14.9887 1.70074 15.4764 1.26309 16.2891 1.08803C17.1394 0.950483 17.8772 1.17556 18.2023 1.65072C18.2773 1.78827 18.3523 1.91331 18.4273 2.06336Z" fill="url(#paint6_linear_1186_7264)"/>
<path d="M20.0035 0.20042C20.2036 0.28795 20.2286 0.387984 20.066 0.450505C19.5659 0.638069 18.3655 0.312958 18.4905 0.112891C18.528 0.0503696 18.6906 0.0378653 18.7656 0.0378653C19.2658 0.000352634 19.7784 0.0878824 20.0035 0.20042Z" fill="url(#paint7_linear_1186_7264)"/>
<path d="M22.854 1.66345C22.879 1.70096 22.879 1.70096 22.879 1.73847C22.8415 1.76348 22.8415 1.76348 22.804 1.77599C21.9537 1.80099 21.0534 1.86352 20.0906 1.96355C20.003 1.97605 19.9155 1.98856 19.828 1.98856C19.7154 1.98856 19.6404 1.96355 19.5904 1.90103C19.4904 1.76348 19.4028 1.62594 19.3028 1.50089C18.9777 1.01323 19.2403 0.675614 20.003 0.600589C20.6783 0.563076 21.6536 0.725631 22.3913 1.27582C22.5539 1.40086 22.7039 1.5259 22.854 1.66345Z" fill="url(#paint8_linear_1186_7264)"/>
<path d="M22.6671 0.250084C22.9797 0.337614 23.1423 0.41264 23.0798 0.450152C22.8922 0.537682 21.2417 0.125042 21.0791 0.0125043C21.1041 4.75135e-08 21.1041 0 21.1916 0C21.5918 0.0375127 22.217 0.125042 22.6671 0.250084Z" fill="url(#paint9_linear_1186_7264)"/>
<path d="M26.4305 1.82611C26.493 1.86362 26.493 1.87612 26.5055 1.90113C26.493 1.90113 26.4805 1.91364 26.468 1.91364C25.7678 1.82611 24.98 1.77609 24.1172 1.76359C24.0297 1.75108 23.9422 1.72607 23.8546 1.66355C23.6921 1.52601 23.517 1.40096 23.3545 1.27592C22.6542 0.763247 22.8168 0.6257 22.9668 0.588188C23.0419 0.575683 23.1419 0.575684 23.2169 0.575684C23.7921 0.625701 24.8049 0.888289 25.7928 1.42597C26.0178 1.55101 26.2304 1.68856 26.4305 1.82611Z" fill="url(#paint10_linear_1186_7264)"/>
<path d="M13.2011 4.87741C13.1135 5.7152 11.7881 6.36542 11.288 5.81523C10.9128 5.4276 11.338 4.5523 12.2258 4.26471C12.9885 4.07714 13.2386 4.5398 13.2011 4.87741Z" fill="url(#paint11_linear_1186_7264)"/>
<path d="M14.3889 8.24109C14.3889 8.35363 14.3263 8.44116 14.2013 8.47867C12.9134 8.80378 11.663 9.16641 10.4751 9.55404C10.35 9.57905 10.2875 9.54153 10.275 9.429C10.2625 9.1539 10.2625 8.89131 10.25 8.62872C10.3 7.56586 11.0253 6.66556 12.1506 6.29043C13.276 6.01534 14.1013 6.46549 14.2888 7.46583C14.3138 7.71592 14.3513 7.9785 14.3889 8.24109Z" fill="url(#paint12_linear_1186_7264)"/>
<path d="M18.3155 3.78897C18.4655 4.53922 17.0901 5.0644 16.3523 4.53922C15.8022 4.13909 16.0272 3.36383 16.965 3.16376C17.7903 3.02621 18.253 3.45136 18.3155 3.78897Z" fill="url(#paint13_linear_1186_7264)"/>
<path d="M20.3285 7.07751C20.3535 7.19005 20.291 7.26508 20.1534 7.29009C18.7905 7.49016 17.4401 7.74024 16.1146 8.02784C15.9771 8.04034 15.9021 8.00283 15.8645 7.89029C15.8145 7.6277 15.777 7.37762 15.727 7.12753C15.6145 6.10219 16.2897 5.30191 17.4776 5.03933C18.703 4.86427 19.7283 5.37694 20.0909 6.32726C20.1785 6.56484 20.2535 6.81493 20.3285 7.07751Z" fill="url(#paint14_linear_1186_7264)"/>
<path d="M23.4796 3.23825C23.8047 3.81344 23.0419 4.21358 22.1416 3.92598C21.2789 3.65089 20.9162 2.95065 21.4664 2.63804C21.6165 2.55051 21.7915 2.52551 21.9041 2.513C22.6918 2.47549 23.3045 2.91314 23.4796 3.23825Z" fill="url(#paint15_linear_1186_7264)"/>
<path d="M26.1677 6.55219C26.2052 6.66473 26.1677 6.72725 26.0426 6.73975C24.9298 6.77727 23.7419 6.85229 22.4915 6.98984C22.3789 7.00234 22.2664 7.01485 22.1539 7.02735C22.0163 7.02735 21.9163 6.97733 21.8663 6.8773C21.7787 6.62721 21.6912 6.37713 21.6037 6.13955C21.3161 5.17672 21.8663 4.46398 23.0041 4.32644C24.192 4.28892 25.2674 4.86412 25.8051 5.82694C25.9426 6.05202 26.0551 6.30211 26.1677 6.55219Z" fill="url(#paint16_linear_1186_7264)"/>
<path d="M27.7685 3.32642C28.1061 3.71405 28.0185 4.00164 27.5559 3.96413C26.6806 3.91411 25.4177 2.83875 25.8428 2.52614C25.9304 2.46362 26.0679 2.46362 26.1429 2.46362C26.8056 2.53865 27.4934 3.00131 27.7685 3.32642Z" fill="url(#paint17_linear_1186_7264)"/>
<path d="M30.8817 6.76423C30.9317 6.87676 30.9192 6.92678 30.8317 6.92678C29.9064 6.81424 28.8811 6.73922 27.7557 6.72671C27.6432 6.71421 27.5431 6.65169 27.4806 6.53915C27.3556 6.28907 27.2305 6.03898 27.1055 5.8014C26.6303 4.83857 26.8929 4.25087 27.7807 4.26338C28.731 4.37592 29.7689 5.06365 30.4316 6.01397C30.5941 6.26406 30.7442 6.51414 30.8817 6.76423Z" fill="url(#paint18_linear_1186_7264)"/>
<path d="M30.8443 3.98809C31.2069 4.32571 31.3445 4.56329 31.1569 4.56329C30.7193 4.55078 28.9437 3.15031 29.1563 2.98775C29.1813 2.96274 29.2438 2.97525 29.3063 3.00026C29.744 3.1253 30.4442 3.61296 30.8443 3.98809Z" fill="url(#paint19_linear_1186_7264)"/>
<path d="M34.1827 7.62717C34.2452 7.7272 34.2327 7.73971 34.2327 7.77722C34.2202 7.77722 34.2077 7.77722 34.2077 7.77722C33.6325 7.52713 32.9323 7.31456 32.1195 7.1395C32.032 7.11449 31.957 7.03947 31.882 6.92693C31.7319 6.67685 31.5819 6.42676 31.4193 6.18918C30.7191 5.08881 30.8941 4.7637 31.2568 4.82622C31.2943 4.82622 31.3318 4.83872 31.3568 4.85123C32.0445 5.10131 32.9573 5.88908 33.6825 6.87691C33.8451 7.11449 34.0202 7.36458 34.1827 7.62717Z" fill="url(#paint20_linear_1186_7264)"/>
<path d="M13.8642 11.1783C13.9267 12.3537 12.4513 13.179 11.6635 12.4038C11.0508 11.8036 11.3259 10.5781 12.4263 10.203C13.4141 9.96543 13.8267 10.6657 13.8642 11.1783Z" fill="url(#paint21_linear_1186_7264)"/>
<path d="M15.7766 15.8435C15.7891 15.9935 15.7391 16.0811 15.6015 16.1311C14.2386 16.4812 12.9131 16.8563 11.6502 17.269C11.5252 17.294 11.4376 17.244 11.3876 17.1064C11.3126 16.7813 11.2376 16.4437 11.1626 16.1186C10.925 14.7181 11.5752 13.5677 12.8631 13.1176C14.176 12.8175 15.2139 13.4802 15.564 14.8432C15.639 15.1683 15.7015 15.5059 15.7766 15.8435Z" fill="url(#paint22_linear_1186_7264)"/>
<path d="M20.0288 9.86529C20.1664 10.9782 18.7284 11.6659 17.7781 10.9532C16.9653 10.3405 17.1529 9.07753 18.3908 8.80243C19.4161 8.65238 19.9663 9.34012 20.0288 9.86529Z" fill="url(#paint23_linear_1186_7264)"/>
<path d="M22.1039 14.6047C22.1164 14.7548 22.0539 14.8423 21.9163 14.8798C20.4784 15.0924 19.0404 15.355 17.6399 15.6676C17.4899 15.6801 17.4023 15.6176 17.3648 15.48C17.2898 15.1424 17.2273 14.8173 17.1523 14.4797C16.9397 13.0792 17.6524 12.0039 19.0279 11.6788C20.4408 11.4912 21.5662 12.254 21.9163 13.6044C21.9788 13.9295 22.0414 14.2671 22.1039 14.6047Z" fill="url(#paint24_linear_1186_7264)"/>
<path d="M26.2557 9.20305C26.4683 10.2159 25.2554 10.7536 24.2551 10.1034C23.2673 9.44063 23.3923 8.20271 24.4427 8.01515C24.4802 8.00264 24.5302 8.00264 24.5677 8.00264C25.5555 7.96513 26.1557 8.67787 26.2557 9.20305Z" fill="url(#paint25_linear_1186_7264)"/>
<path d="M28.3186 14.043C28.3311 14.193 28.2686 14.2681 28.1435 14.2931C26.9681 14.3306 25.7177 14.4181 24.3923 14.5557C24.2673 14.5682 24.1547 14.5807 24.0297 14.5932C23.8796 14.5932 23.7921 14.5307 23.7546 14.3806C23.6921 14.043 23.6295 13.7179 23.567 13.3803C23.367 12.0048 24.0922 11.0045 25.4301 10.8294C26.7806 10.8044 27.8309 11.6422 28.156 13.0301C28.206 13.3803 28.2686 13.7179 28.3186 14.043Z" fill="url(#paint26_linear_1186_7264)"/>
<path d="M31.4199 9.30247C31.67 10.1528 31.0448 10.6029 30.2445 10.1403C29.2692 9.57756 28.8816 8.2146 29.6318 7.96452C29.7318 7.927 29.8319 7.927 29.9069 7.927C30.7072 8.02704 31.2699 8.78979 31.4199 9.30247Z" fill="url(#paint27_linear_1186_7264)"/>
<path d="M33.3451 14.2668C33.3576 14.4043 33.3075 14.4793 33.22 14.4793C32.2447 14.3543 31.1568 14.2793 29.969 14.2668C29.8439 14.2543 29.7689 14.1667 29.7314 14.0292C29.6814 13.6916 29.6188 13.3539 29.5563 13.0288C29.3437 11.6409 29.8689 10.7781 30.9318 10.7781C32.0071 10.9156 32.8824 11.8659 33.1825 13.2664C33.245 13.604 33.295 13.9291 33.3451 14.2668Z" fill="url(#paint28_linear_1186_7264)"/>
<path d="M35.1207 10.1039C35.3583 10.7667 35.2208 11.1543 34.7956 10.9667C34.0079 10.6166 33.1451 8.74098 33.6953 8.57842C33.7578 8.56592 33.8203 8.57842 33.8828 8.59093C34.433 8.79099 34.9457 9.59126 35.1207 10.1039Z" fill="url(#paint29_linear_1186_7264)"/>
<path d="M36.8463 15.18C36.8588 15.3676 36.8213 15.3676 36.7713 15.3676C36.1586 15.0925 35.4209 14.8674 34.5581 14.6924C34.4705 14.6549 34.408 14.5673 34.383 14.4298C34.333 14.0922 34.283 13.7671 34.2205 13.4295C34.0079 12.054 34.308 11.2912 35.0082 11.4413C35.746 11.7289 36.4087 12.8042 36.6838 14.1797C36.7588 14.5173 36.8088 14.8549 36.8463 15.18Z" fill="url(#paint30_linear_1186_7264)"/>
<path d="M37.1214 11.5046C37.2214 11.7297 37.434 12.2548 37.359 12.3299C37.1214 12.3049 35.996 9.94155 36.1586 9.7915C36.1836 9.7915 36.1961 9.80401 36.2211 9.84152C36.4712 10.1166 36.8713 10.9044 37.1214 11.5046Z" fill="url(#paint31_linear_1186_7264)"/>
<path d="M38.5846 16.7061C38.5971 16.8311 38.5971 16.8436 38.5971 16.8811C38.397 16.481 38.0594 16.1184 37.5842 15.8058C37.5342 15.7558 37.4967 15.6682 37.4717 15.5182C37.4342 15.1806 37.3842 14.8555 37.3217 14.5178C36.9841 12.5172 37.3217 12.6547 37.3842 12.6922C37.3967 12.7047 37.4217 12.7297 37.4342 12.7422C37.7843 13.1674 38.1719 14.3303 38.422 15.7057C38.497 16.0434 38.5471 16.3685 38.5846 16.7061Z" fill="url(#paint32_linear_1186_7264)"/>
<path d="M6.38618 5.68999C6.32366 5.77752 6.26114 5.85254 6.18612 5.89006C5.5234 6.25268 4.94821 6.6153 4.46055 6.99043L4.44805 7.00293L4.43555 6.99043C4.44805 6.96542 4.46056 6.95291 4.48556 6.89039C4.64812 6.66532 4.81067 6.45275 4.97322 6.24017C5.97355 5.01476 6.89885 4.38955 6.99888 4.31452C7.11142 4.2395 7.29898 4.13946 7.23646 4.32703C7.17394 4.51459 6.88635 4.93973 6.77381 5.10229C6.64877 5.27735 6.51122 5.47742 6.38618 5.68999Z" fill="url(#paint33_linear_1186_7264)"/>
<path d="M10.7254 2.13755C10.1377 2.66273 9.4375 3.01285 9.4375 2.83779C9.4375 2.66273 10.2002 2.12505 10.8129 1.86246C10.888 1.83745 11.013 1.77493 10.988 1.86246C10.963 1.91248 10.8755 2.01251 10.7254 2.13755Z" fill="url(#paint34_linear_1186_7264)"/>
<path d="M9.80028 4.18848C9.76277 4.27601 9.70025 4.32602 9.61272 4.36354C8.74994 4.67614 7.94968 5.01376 7.21193 5.36387C7.17442 5.37638 7.17442 5.37638 7.14941 5.36387C7.14941 5.32636 7.14941 5.32636 7.17442 5.27635C7.28696 5.07628 7.3995 4.88871 7.52454 4.70115C8.11223 3.86337 8.96251 3.27567 9.51269 3.02558C10.363 2.70047 10.1504 3.3632 10.0254 3.6633C9.93782 3.83836 9.8753 4.01342 9.80028 4.18848Z" fill="url(#paint35_linear_1186_7264)"/>
<path d="M4.83586 8.10239C4.43573 9.0027 3.62296 9.80297 3.49792 9.41534C3.38539 9.05271 4.0481 7.85231 4.69831 7.41466C5.07344 7.20209 5.01092 7.56471 4.9734 7.72727C4.9484 7.80229 4.91088 7.92733 4.83586 8.10239Z" fill="url(#paint36_linear_1186_7264)"/>
<path d="M4.46078 11.8548C4.43577 11.9798 4.38575 12.0798 4.29822 12.1299C3.43544 12.605 2.67269 13.0802 2.03499 13.5678C2.02248 13.5803 1.99747 13.5803 1.98497 13.5803C1.95996 13.5428 1.95996 13.5303 1.95996 13.4428C1.99747 13.1427 2.04749 12.8551 2.11001 12.5675C2.3726 11.3921 2.9978 10.3167 3.69803 9.82908C4.36074 9.45395 4.68585 9.9041 4.56081 11.017C4.51079 11.2796 4.48579 11.5672 4.46078 11.8548Z" fill="url(#paint37_linear_1186_7264)"/>
<path d="M8.57482 6.35292C8.28722 7.25322 7.09933 8.00347 6.86176 7.45329C6.6867 7.04065 7.23688 6.07782 7.99963 5.7277C8.64984 5.49012 8.69986 5.99029 8.57482 6.35292Z" fill="url(#paint38_linear_1186_7264)"/>
<path d="M8.94977 9.87932C8.93726 10.0044 8.87474 10.0919 8.76221 10.1419C7.63684 10.5545 6.5865 10.9922 5.62368 11.4549C5.52365 11.4924 5.48614 11.4423 5.47363 11.3298C5.49864 11.0422 5.52365 10.7671 5.54866 10.492C5.72372 9.37915 6.44895 8.37881 7.39926 7.92866C8.32456 7.59104 8.92476 8.02869 8.93726 9.07905C8.94977 9.34164 8.94977 9.60422 8.94977 9.87932Z" fill="url(#paint39_linear_1186_7264)"/>
<path d="M0.734547 17.3186C0.709539 18.3565 0.396937 19.3068 0.159359 19.0442C-0.115731 18.7441 -0.0282019 16.956 0.371929 16.3558C0.659522 16.0307 0.722043 16.7685 0.734547 16.9185C0.734547 17.0435 0.747051 17.1936 0.734547 17.3186Z" fill="url(#paint40_linear_1186_7264)"/>
<path d="M1.86008 21.9567C1.89759 22.1068 1.88509 22.2068 1.83507 22.2694C1.53497 22.5569 1.28489 22.8445 1.07232 23.1321C0.909771 23.3572 0.772226 23.5823 0.672193 23.7949C0.672193 23.7949 0.659689 23.8074 0.647185 23.8074C0.609673 23.7824 0.597169 23.7699 0.559657 23.6448C0.472128 23.3197 0.3846 22.9946 0.309575 22.6695C0.00947736 21.269 0.0469895 20.0436 0.409608 19.4684C0.809738 19.0308 1.25988 19.606 1.59749 20.9689C1.68502 21.3065 1.76005 21.6441 1.86008 21.9567Z" fill="url(#paint41_linear_1186_7264)"/>
<path d="M3.77269 15.0672C3.74768 16.1801 2.98493 17.1554 2.50977 16.6677C2.04712 16.1926 2.23469 14.6796 2.98493 14.1419C3.57262 13.8168 3.78519 14.5295 3.77269 15.0672Z" fill="url(#paint42_linear_1186_7264)"/>
<path d="M5.21143 19.6817C5.23644 19.8317 5.21143 19.9318 5.1239 19.9943C4.2111 20.4945 3.39834 20.9946 2.73562 21.5198C2.6606 21.5573 2.61058 21.5073 2.56056 21.3698C2.47304 21.0446 2.38551 20.7195 2.31048 20.3819C2.03539 18.994 2.3605 17.7435 3.12325 17.1808C3.91101 16.7557 4.62374 17.3309 4.97385 18.6939C5.03637 19.0315 5.1239 19.3566 5.21143 19.6817Z" fill="url(#paint43_linear_1186_7264)"/>
<path d="M8.28727 12.9667C8.29977 14.1296 7.1494 15.0424 6.48668 14.4172C5.91149 13.8795 6.16157 12.504 7.13689 12.0289C7.97467 11.7413 8.28727 12.4415 8.28727 12.9667Z" fill="url(#paint44_linear_1186_7264)"/>
<path d="M9.98782 17.594C10.0128 17.744 9.96281 17.8441 9.85028 17.8941C8.66239 18.3317 7.54952 18.7944 6.52419 19.2821C6.41165 19.3196 6.34913 19.2695 6.29912 19.132C6.21159 18.8069 6.13656 18.4693 6.06154 18.1442C5.81146 16.7562 6.33663 15.5308 7.39948 15.0181C8.49983 14.6305 9.40013 15.2432 9.75024 16.6061C9.83777 16.9313 9.9128 17.2564 9.98782 17.594Z" fill="url(#paint45_linear_1186_7264)"/>
<path d="M15.6891 19.7688C15.8892 20.9817 14.6763 21.7945 13.7384 21.0943C12.9007 20.469 12.9257 19.006 14.0636 18.6184C15.0264 18.4058 15.5891 19.1686 15.6891 19.7688Z" fill="url(#paint46_linear_1186_7264)"/>
<path d="M17.9149 24.4468C17.9399 24.5843 17.9024 24.6719 17.7774 24.7094C16.602 25.0095 15.4766 25.3346 14.4013 25.6847C14.2887 25.7097 14.2012 25.6597 14.1387 25.5346C14.0137 25.2345 13.8886 24.9344 13.7636 24.6218C13.3134 23.3089 13.7761 22.1835 14.939 21.7709C16.1519 21.4958 17.2272 22.171 17.6523 23.4965C17.7399 23.8341 17.8274 24.1467 17.9149 24.4468Z" fill="url(#paint47_linear_1186_7264)"/>
<path d="M21.7412 18.4935C21.8162 19.7189 20.4657 20.4316 19.5529 19.6439C18.7402 18.9561 18.9152 17.4931 20.1406 17.2055C21.1785 17.068 21.7036 17.8683 21.7412 18.4935Z" fill="url(#paint48_linear_1186_7264)"/>
<path d="M23.3671 23.3829C23.3671 23.5205 23.3046 23.608 23.192 23.6455C21.9541 23.8331 20.7287 24.0582 19.5284 24.3208C19.4033 24.3333 19.3283 24.2707 19.2783 24.1457C19.2032 23.8331 19.1282 23.5205 19.0532 23.1954C18.8031 21.8324 19.4658 20.7446 20.7287 20.4445C22.0417 20.2819 23.042 21.0572 23.2546 22.4326C23.3046 22.7452 23.3421 23.0578 23.3671 23.3829Z" fill="url(#paint49_linear_1186_7264)"/>
<path d="M27.8432 17.8446C27.8307 19.0575 26.4927 19.6077 25.68 18.7449C24.9547 17.9696 25.2423 16.5441 26.4302 16.3941C27.418 16.3691 27.8557 17.2194 27.8432 17.8446Z" fill="url(#paint50_linear_1186_7264)"/>
<path d="M28.7311 22.9085C28.7061 23.046 28.6436 23.121 28.531 23.146C27.5182 23.1835 26.4429 23.2586 25.3175 23.3711C25.2175 23.3836 25.1049 23.3961 25.0049 23.4086C24.8798 23.4086 24.8048 23.3461 24.7923 23.2086C24.7798 22.8834 24.7548 22.5583 24.7298 22.2332C24.6923 20.8328 25.48 19.8324 26.743 19.6574C27.9809 19.6449 28.7811 20.5327 28.7811 21.9331C28.7686 22.2582 28.7436 22.5833 28.7311 22.9085Z" fill="url(#paint51_linear_1186_7264)"/>
<path d="M32.9072 17.9304C32.8321 19.0183 31.9318 19.481 31.2941 18.7432C30.5939 17.9304 30.8315 16.3174 31.8693 16.3174C32.6571 16.4299 32.9447 17.3302 32.9072 17.9304Z" fill="url(#paint52_linear_1186_7264)"/>
<path d="M33.0577 23.095C33.0201 23.2325 32.9576 23.3076 32.8701 23.3076C32.0323 23.195 31.0945 23.145 30.0817 23.12C29.9817 23.1075 29.9316 23.0325 29.9316 22.8824C29.9692 22.5573 29.9942 22.2322 30.0192 21.8946C30.1692 20.4941 30.9195 19.5813 31.9073 19.5813C32.8951 19.7188 33.4078 20.7067 33.2327 22.1072C33.1827 22.4448 33.1202 22.7699 33.0577 23.095Z" fill="url(#paint53_linear_1186_7264)"/>
<path d="M36.5468 18.7192C36.4592 19.607 35.9591 20.0196 35.5589 19.5445C34.9337 18.8067 35.1338 16.8936 35.8465 16.9561C35.8715 16.9561 35.8965 16.9686 35.9216 16.9686C36.4467 17.1937 36.6093 18.1315 36.5468 18.7192Z" fill="url(#paint54_linear_1186_7264)"/>
<path d="M36.084 23.8833C36.059 23.9708 36.0215 24.0459 35.9465 24.0709C35.4088 23.8333 34.7711 23.6457 34.0334 23.4957C33.9583 23.4707 33.9458 23.3831 33.9583 23.2456C34.0334 22.9205 34.0959 22.5954 34.1584 22.2703C34.4585 20.8698 35.0712 20.082 35.7589 20.2196C36.4216 20.4947 36.6467 21.5825 36.3466 22.933C36.2716 23.2581 36.1841 23.5707 36.084 23.8833Z" fill="url(#paint55_linear_1186_7264)"/>
<path d="M38.5094 20.0951C38.4469 20.7453 38.2718 21.1204 38.1093 20.9579C37.7341 20.5702 37.8342 18.1569 38.2343 18.2195C38.2593 18.2195 38.2843 18.2445 38.2968 18.257C38.5344 18.5821 38.5594 19.5324 38.5094 20.0951Z" fill="url(#paint56_linear_1186_7264)"/>
<path d="M37.5718 25.1951C37.5218 25.3326 37.4967 25.3451 37.4717 25.3576C37.3092 25.0075 37.0216 24.7074 36.609 24.4323C36.5839 24.3948 36.5589 24.3448 36.609 24.1697C36.709 23.8571 36.809 23.5445 36.8965 23.2194C37.2842 21.869 37.7218 21.1812 38.0344 21.4313C38.322 21.8314 38.2595 22.9693 37.8844 24.2698C37.7843 24.5824 37.6843 24.895 37.5718 25.1951Z" fill="url(#paint57_linear_1186_7264)"/>
<path d="M18.0276 27.5347C18.2651 28.4475 17.5774 29.2353 16.6771 28.6976C15.7893 28.1724 15.5768 26.8345 16.5396 26.4843C17.3273 26.3093 17.89 26.997 18.0276 27.5347Z" fill="url(#paint58_linear_1186_7264)"/>
<path d="M20.1411 31.4974C20.1661 31.61 20.1536 31.6725 20.0785 31.71C19.3033 31.9101 18.553 32.1226 17.8403 32.3602C17.7653 32.3727 17.6903 32.3352 17.6152 32.2352C17.4652 32.0101 17.3151 31.7725 17.1651 31.5224C16.5649 30.4596 16.765 29.5718 17.6527 29.2467C18.578 29.0466 19.4533 29.6343 19.8785 30.7472C19.9535 30.9973 20.0535 31.2599 20.1411 31.4974Z" fill="url(#paint59_linear_1186_7264)"/>
<path d="M22.8418 26.5207C22.8543 27.5336 21.879 28.2588 21.1037 27.5086C20.4285 26.8583 20.566 25.5579 21.5664 25.3203C22.4292 25.2078 22.8293 25.9455 22.8418 26.5207Z" fill="url(#paint60_linear_1186_7264)"/>
<path d="M23.7926 30.7862C23.7801 30.8988 23.7426 30.9738 23.655 30.9988C22.8298 31.1238 22.017 31.2739 21.2292 31.449C21.1417 31.4615 21.0917 31.4114 21.0542 31.2989C20.9917 31.0488 20.9166 30.7862 20.8541 30.5236C20.604 29.3733 21.0667 28.4729 22.0295 28.2354C23.0298 28.1228 23.7301 28.8106 23.7926 29.986C23.7926 30.2486 23.7926 30.5236 23.7926 30.7862Z" fill="url(#paint61_linear_1186_7264)"/>
<path d="M27.6932 25.9967C27.4932 27.022 26.4303 27.6347 25.8801 26.7969C25.3925 26.0592 25.7926 24.7712 26.7929 24.6337C27.5932 24.6212 27.8058 25.4215 27.6932 25.9967Z" fill="url(#paint62_linear_1186_7264)"/>
<path d="M27.3804 30.4737C27.3303 30.5862 27.2803 30.6612 27.2053 30.6737C26.5426 30.6987 25.8173 30.7488 25.0671 30.8238C24.9921 30.8363 24.9296 30.8363 24.8545 30.8488C24.767 30.8488 24.7295 30.7863 24.7295 30.6737C24.7545 30.4111 24.767 30.136 24.792 29.861C24.9045 28.6355 25.5798 27.7853 26.5426 27.6477C27.4804 27.6477 27.9055 28.4355 27.6179 29.6484C27.5429 29.9235 27.4679 30.1986 27.3804 30.4737Z" fill="url(#paint63_linear_1186_7264)"/>
<path d="M31.7076 26.0708C31.3824 26.9711 30.5322 27.5213 30.1946 26.8211C29.857 26.1208 30.3571 24.5828 31.2824 24.5703C31.9201 24.6829 31.9201 25.5081 31.7076 26.0708Z" fill="url(#paint64_linear_1186_7264)"/>
<path d="M30.2821 30.5976C30.2071 30.7101 30.1446 30.7726 30.0821 30.7726C29.5319 30.6976 28.9067 30.6601 28.2315 30.6476C28.1689 30.6351 28.1564 30.5725 28.194 30.4475C28.294 30.1724 28.394 29.8973 28.494 29.6097C28.9567 28.3718 29.7069 27.584 30.4697 27.5715C31.2074 27.6841 31.3075 28.5594 30.7323 29.7598C30.5947 30.0474 30.4447 30.3225 30.2821 30.5976Z" fill="url(#paint65_linear_1186_7264)"/>
<path d="M34.6082 26.6971C34.2206 27.4723 33.5703 27.96 33.4078 27.4098C33.2202 26.7721 33.9205 24.9965 34.6332 25.1215C35.0208 25.2966 34.9208 26.0593 34.6082 26.6971Z" fill="url(#paint66_linear_1186_7264)"/>
<path d="M32.3078 31.1227C32.2578 31.1852 32.1828 31.2602 32.1203 31.2852C31.7577 31.1352 31.3325 30.9976 30.8449 30.8976C30.8199 30.8726 30.7948 30.8476 30.8824 30.6975C31.0449 30.435 31.22 30.1599 31.37 29.8848C32.1078 28.6469 32.833 27.9841 33.3707 28.0717C33.7833 28.2592 33.7958 29.0345 32.8955 30.3474C32.708 30.61 32.5204 30.8726 32.3078 31.1227Z" fill="url(#paint67_linear_1186_7264)"/>
<path d="M36.1584 27.7971C35.7833 28.4349 35.3707 28.785 35.3081 28.5099C35.1831 27.9597 36.2334 26.0215 36.5585 26.1716C36.571 26.1716 36.5836 26.1841 36.5836 26.1966C36.7711 26.4342 36.496 27.2094 36.1584 27.7971Z" fill="url(#paint68_linear_1186_7264)"/>
<path d="M33.3075 31.9984C33.1699 32.1359 33.1449 32.1234 33.1324 32.1234C33.0324 31.8983 32.8323 31.6983 32.5697 31.5107C32.5697 31.4857 32.5572 31.4482 32.6698 31.2981C32.8824 31.048 33.0824 30.7854 33.2825 30.5229C34.2078 29.3225 34.833 28.7848 35.0956 28.9598C35.2706 29.2349 34.933 30.1102 33.9702 31.2481C33.7576 31.5232 33.5326 31.7733 33.3075 31.9984Z" fill="url(#paint69_linear_1186_7264)"/>
<path d="M20.554 33.8364C20.7665 34.3615 20.679 34.9367 20.0788 34.6742C19.3036 34.324 18.8659 33.2987 19.3786 33.0486C19.3911 33.0361 19.4286 33.0361 19.4411 33.0236C19.9163 32.9236 20.3664 33.3737 20.554 33.8364Z" fill="url(#paint70_linear_1186_7264)"/>
<path d="M22.2289 36.5256C22.2664 36.6131 22.2539 36.6256 22.2414 36.6381C22.0038 36.7006 21.7663 36.7631 21.5537 36.8382C21.5287 36.8382 21.5037 36.8382 21.4036 36.7631C21.2536 36.6381 21.1036 36.5005 20.941 36.363C20.1782 35.6378 20.2408 35.1501 20.6034 35C20.8285 34.9625 21.4287 34.975 21.9788 36.0629C22.0789 36.2255 22.1539 36.3755 22.2289 36.5256Z" fill="url(#paint71_linear_1186_7264)"/>
<path d="M23.292 33.2607C23.267 33.911 22.8294 34.4987 22.3667 33.9985C21.9416 33.5358 21.8791 32.473 22.5668 32.2979C23.0545 32.2354 23.3171 32.7481 23.292 33.2607Z" fill="url(#paint72_linear_1186_7264)"/>
<path d="M23.4172 36.3005C23.4047 36.3505 23.3922 36.3881 23.3672 36.4256C23.1046 36.4631 22.8545 36.5131 22.617 36.5631C22.592 36.5631 22.5795 36.5506 22.5419 36.4631C22.4919 36.313 22.4419 36.1505 22.3919 35.9754C22.1293 35.0376 22.4419 34.5999 22.8295 34.4874C23.2547 34.4499 23.6298 34.825 23.5173 35.7628C23.4797 35.9504 23.4422 36.1255 23.4172 36.3005Z" fill="url(#paint73_linear_1186_7264)"/>
<path d="M26.0551 32.9607C25.78 33.5859 25.1673 34.1611 24.9547 33.6734C24.7296 33.1482 25.1173 31.9728 25.805 31.8728C26.2676 31.8728 26.2927 32.4355 26.0551 32.9607Z" fill="url(#paint74_linear_1186_7264)"/>
<path d="M24.5798 36.187C24.5423 36.237 24.4922 36.287 24.4547 36.312C24.2422 36.3245 24.0171 36.337 23.792 36.362C23.767 36.362 23.7545 36.362 23.7295 36.3745C23.7295 36.3745 23.717 36.3745 23.717 36.362C23.717 36.337 23.7045 36.3245 23.7295 36.2495C23.792 36.0744 23.842 35.8994 23.9046 35.7118C24.2922 34.4989 24.8174 34.2363 25.1049 34.1863C25.5051 34.1988 25.6426 34.6489 24.9924 35.6243C24.8549 35.8243 24.7173 36.0119 24.5798 36.187Z" fill="url(#paint75_linear_1186_7264)"/>
<path d="M28.3557 33.0118C27.9431 33.5495 27.2428 34.0872 27.2053 33.7121C27.1553 33.2869 27.9681 31.8614 28.6058 31.8364C28.9559 31.9115 28.7433 32.4991 28.3557 33.0118Z" fill="url(#paint76_linear_1186_7264)"/>
<path d="M25.5178 36.2368C25.4553 36.2868 25.3928 36.3368 25.3428 36.3493C25.1677 36.3243 24.9676 36.3118 24.7676 36.3118C24.7676 36.2868 24.7676 36.2743 24.8551 36.1868C25.0177 36.0117 25.1802 35.8241 25.3303 35.6366C25.6554 35.2489 26.5056 34.2111 27.0683 34.1736C27.3934 34.2486 27.1934 34.7988 26.1805 35.6866C25.9555 35.8742 25.7429 36.0617 25.5178 36.2368Z" fill="url(#paint77_linear_1186_7264)"/>
<path d="M29.9937 33.3618C29.4811 33.8494 28.8184 34.2621 28.8184 34.0245C28.8184 33.7494 30.1438 32.0988 30.669 32.1739C30.9065 32.2989 30.5064 32.8866 29.9937 33.3618Z" fill="url(#paint78_linear_1186_7264)"/>
<path d="M26.1674 36.4C26.1174 36.425 26.0173 36.4876 25.9548 36.5001C25.8423 36.45 25.7047 36.4125 25.5547 36.3875C25.5797 36.3625 25.5797 36.35 25.7047 36.2625C25.9423 36.0874 26.1924 35.9124 26.43 35.7248C27.2427 35.0871 28.1555 34.3618 28.5307 34.3993C28.7057 34.4994 28.3431 35.0496 27.0177 35.8999C26.7301 36.0749 26.455 36.25 26.1674 36.4Z" fill="url(#paint79_linear_1186_7264)"/>
<path d="M30.8818 33.9861C30.3441 34.3988 29.7939 34.6864 29.7814 34.5613C29.7689 34.4363 30.4941 33.761 31.0318 33.3234C31.2444 33.1483 31.7696 32.7482 31.9071 32.8232C31.9696 32.9858 31.507 33.511 30.8818 33.9861Z" fill="url(#paint80_linear_1186_7264)"/>
<path d="M26.4929 36.6882C26.3178 36.7632 26.2803 36.7632 26.2678 36.7632C26.2303 36.6882 26.1803 36.6257 26.0928 36.5757C26.1303 36.5507 26.1428 36.5382 26.2928 36.4631C26.5929 36.3131 26.8805 36.1505 27.1681 35.988C28.6561 35.1127 29.2188 34.7876 29.3939 34.8751C29.4314 34.9876 28.9937 35.5003 27.4307 36.2756C27.1181 36.4131 26.8055 36.5507 26.4929 36.6882Z" fill="url(#paint81_linear_1186_7264)"/>
<path d="M2.82312 25.809C3.23576 26.7468 3.17324 27.6221 2.69808 27.4221C2.12289 27.172 1.42266 25.5089 1.78528 24.9087C2.09789 24.5836 2.58554 25.2338 2.82312 25.809Z" fill="url(#paint82_linear_1186_7264)"/>
<path d="M5.92379 29.7342C6.01132 29.8468 6.03633 29.9343 5.99882 29.9843C5.73623 30.2344 5.52366 30.4845 5.3486 30.722C5.21106 30.9221 5.09852 31.1097 5.01099 31.2972C4.98599 31.3097 4.94847 31.3348 4.82343 31.1972C4.59836 30.9596 4.38579 30.7095 4.18573 30.4595C3.32294 29.3591 2.96033 28.3087 3.27293 27.7836C3.67306 27.3709 4.46082 27.8211 5.3236 28.959C5.51116 29.209 5.71122 29.4716 5.92379 29.7342Z" fill="url(#paint83_linear_1186_7264)"/>
<path d="M5.79883 23.5959C6.16144 24.6337 5.69879 25.534 4.97356 25.1964C4.16079 24.8213 3.69814 23.2082 4.44839 22.6455C5.03608 22.3329 5.59876 23.0082 5.79883 23.5959Z" fill="url(#paint84_linear_1186_7264)"/>
<path d="M8.79929 27.7724C8.87432 27.8974 8.86181 27.9849 8.79929 28.035C8.01154 28.4601 7.32381 28.8978 6.74862 29.3354C6.6861 29.3729 6.59857 29.3354 6.51105 29.2229C6.31098 28.9603 6.11092 28.6977 5.92335 28.4226C5.1481 27.2472 5.09808 26.1468 5.78581 25.6091C6.54856 25.209 7.51137 25.7092 8.27412 26.9221C8.44918 27.2097 8.62424 27.4848 8.79929 27.7724Z" fill="url(#paint85_linear_1186_7264)"/>
<path d="M10.2376 21.5323C10.5252 22.6577 9.67493 23.5455 8.78714 23.0453C7.89935 22.5451 7.69928 20.9946 8.68711 20.507C9.49987 20.2194 10.0751 20.9321 10.2376 21.5323Z" fill="url(#paint86_linear_1186_7264)"/>
<path d="M12.9262 25.9596C12.9762 26.0971 12.9512 26.1846 12.8512 26.2346C11.8259 26.6098 10.8756 27.0099 10.0128 27.4225C9.91275 27.4476 9.82522 27.41 9.7502 27.2975C9.57514 27.0099 9.41259 26.7348 9.25003 26.4347C8.61233 25.1843 8.8374 24.0589 9.81272 23.5712C10.8381 23.2211 11.9009 23.8088 12.5136 25.0718C12.6636 25.3719 12.7887 25.672 12.9262 25.9596Z" fill="url(#paint87_linear_1186_7264)"/>
<path d="M7.79912 32.336C8.38681 32.9112 8.69942 33.5489 8.23677 33.5614C7.57405 33.5739 6.08606 32.236 6.38616 31.6983C6.64875 31.4232 7.37398 31.9234 7.79912 32.336Z" fill="url(#paint88_linear_1186_7264)"/>
<path d="M12.1007 35.0373C12.2632 35.1373 12.2507 35.1749 12.2507 35.1999C12.0757 35.3624 11.9381 35.525 11.8131 35.6875C11.7131 35.8126 11.6505 35.9501 11.588 36.0627C11.563 36.0752 11.5255 36.0877 11.3505 36.0126C11.0504 35.8751 10.7628 35.725 10.4627 35.575C9.07471 34.8122 8.62456 34.0995 8.79962 33.7619C9.12472 33.4618 10 33.7244 11.2629 34.5246C11.538 34.7122 11.8131 34.8748 12.1007 35.0373Z" fill="url(#paint89_linear_1186_7264)"/>
<path d="M10.1624 30.5735C10.7376 31.3112 10.6501 31.9615 9.99984 31.8614C9.06204 31.7364 7.91166 30.3234 8.57438 29.8107C9.09955 29.5481 9.82478 30.1358 10.1624 30.5735Z" fill="url(#paint90_linear_1186_7264)"/>
<path d="M14.0266 33.7237C14.1516 33.8363 14.1266 33.8738 14.1016 33.9113C13.5764 34.1989 13.1263 34.4865 12.7386 34.7741C12.7011 34.7866 12.6386 34.7991 12.4886 34.699C12.2135 34.524 11.9509 34.3489 11.6883 34.1614C10.4254 33.2361 10.2878 32.4733 10.713 32.1357C11.3007 31.8356 12.276 32.2107 13.3263 33.111C13.5639 33.3236 13.8015 33.5362 14.0266 33.7237Z" fill="url(#paint91_linear_1186_7264)"/>
<path d="M13.6886 28.9353C14.0763 29.7105 13.7887 30.4733 12.9509 30.2357C11.9005 29.9356 11.2753 28.5226 12.0006 28.085C12.0256 28.0725 12.0631 28.06 12.0881 28.0475C12.7133 27.8224 13.3885 28.3351 13.6886 28.9353Z" fill="url(#paint92_linear_1186_7264)"/>
<path d="M16.7896 32.512C16.8521 32.612 16.8521 32.6745 16.8021 32.712C16.1268 32.9621 15.4891 33.2247 14.914 33.4998C14.8514 33.5248 14.7639 33.4873 14.6639 33.3998C14.4388 33.1997 14.2262 32.9871 14.0137 32.7746C13.1384 31.8493 13.0383 30.9615 13.7636 30.5863C14.5513 30.3237 15.5267 30.7989 16.2894 31.8242C16.4645 32.0618 16.627 32.2869 16.7896 32.512Z" fill="url(#paint93_linear_1186_7264)"/>
<path d="M14.7266 36.5748C14.8516 36.6248 15.8895 37.05 15.6894 37.175C15.2893 37.4126 13.0635 36.6373 13.1386 36.2872C13.1386 36.2747 13.1511 36.2622 13.1511 36.2622C13.3762 36.0496 14.5015 36.4873 14.7266 36.5748Z" fill="url(#paint94_linear_1186_7264)"/>
<path d="M19.6278 37.6748C19.7403 37.6873 19.7779 37.6998 19.8279 37.7123C19.7904 37.7748 19.7403 37.8249 19.7028 37.8749C19.6778 37.9124 19.6528 37.9499 19.6278 37.9874C19.6028 37.9874 19.5778 37.9999 19.3777 37.9999C19.0401 37.9874 18.7025 37.9624 18.3649 37.9374C16.7644 37.7873 16.1017 37.4622 16.1642 37.2872C16.3893 37.1121 17.4021 37.2997 18.6775 37.5248C19.0026 37.5748 19.3152 37.6248 19.6278 37.6748Z" fill="url(#paint95_linear_1186_7264)"/>
<path d="M16.0773 35.5742C16.4399 35.7993 17.0276 36.2495 16.6524 36.312C15.9522 36.4245 14.1891 35.4617 14.4767 35.1241C14.4892 35.1116 14.5017 35.0991 14.5142 35.0991C14.8644 34.924 15.6521 35.3116 16.0773 35.5742Z" fill="url(#paint96_linear_1186_7264)"/>
<path d="M20.2533 37.2381C20.3783 37.2756 20.3908 37.2882 20.4158 37.3007C20.2533 37.3882 20.1157 37.4757 19.9907 37.5758C19.9657 37.5758 19.9282 37.5883 19.7531 37.5507C19.453 37.5007 19.1404 37.4382 18.8403 37.3757C17.3523 37.0256 16.9397 36.6254 17.1273 36.4504C17.5274 36.2753 18.5402 36.6254 19.4655 36.9755C19.7406 37.0756 20.0032 37.1631 20.2533 37.2381Z" fill="url(#paint97_linear_1186_7264)"/>
<path d="M18.0775 34.6365C18.4151 34.9991 18.6777 35.4868 18.2025 35.4743C17.4898 35.4368 16.2269 34.449 16.5895 34.0488C16.6145 34.0238 16.652 33.9988 16.677 33.9863C17.1021 33.8488 17.7023 34.2364 18.0775 34.6365Z" fill="url(#paint98_linear_1186_7264)"/>
<path d="M21.1536 36.8501C21.2411 36.9126 21.2411 36.9251 21.2536 36.9376C21.0411 37.0126 20.841 37.1001 20.6659 37.1877C20.6409 37.1877 20.6034 37.1877 20.4659 37.1377C20.2283 37.0501 19.9907 36.9501 19.7406 36.8376C18.6278 36.3249 18.3527 35.8497 18.6653 35.6747C19.0779 35.5496 19.7281 35.8247 20.6159 36.4749C20.8035 36.6125 20.9785 36.7375 21.1536 36.8501Z" fill="url(#paint99_linear_1186_7264)"/>
<defs>
<linearGradient id="paint0_linear_1186_7264" x1="6.95095" y1="2.18506" x2="65.041" y2="41.1712" gradientUnits="userSpaceOnUse">
<stop stop-color="#29ABE2"/>
<stop offset="1" stop-color="#2E3192"/>
</linearGradient>
<linearGradient id="paint1_linear_1186_7264" x1="0.735455" y1="11.4478" x2="58.8255" y2="50.4339" gradientUnits="userSpaceOnUse">
<stop stop-color="#29ABE2"/>
<stop offset="1" stop-color="#2E3192"/>
</linearGradient>
<linearGradient id="paint2_linear_1186_7264" x1="-3.69611" y1="18.0486" x2="54.3939" y2="57.0347" gradientUnits="userSpaceOnUse">
<stop stop-color="#29ABE2"/>
<stop offset="1" stop-color="#2E3192"/>
</linearGradient>
<linearGradient id="paint3_linear_1186_7264" x1="9.18337" y1="-1.14117" x2="67.2734" y2="37.845" gradientUnits="userSpaceOnUse">
<stop stop-color="#29ABE2"/>
<stop offset="1" stop-color="#2E3192"/>
</linearGradient>
<linearGradient id="paint4_linear_1186_7264" x1="8.23904" y1="0.265871" x2="66.3291" y2="39.252" gradientUnits="userSpaceOnUse">
<stop stop-color="#29ABE2"/>
<stop offset="1" stop-color="#2E3192"/>
</linearGradient>
<linearGradient id="paint5_linear_1186_7264" x1="10.493" y1="-3.09235" x2="68.583" y2="35.8938" gradientUnits="userSpaceOnUse">
<stop stop-color="#29ABE2"/>
<stop offset="1" stop-color="#2E3192"/>
</linearGradient>
<linearGradient id="paint6_linear_1186_7264" x1="9.97748" y1="-2.32485" x2="68.0675" y2="36.6613" gradientUnits="userSpaceOnUse">
<stop stop-color="#29ABE2"/>
<stop offset="1" stop-color="#2E3192"/>
</linearGradient>
<linearGradient id="paint7_linear_1186_7264" x1="11.6941" y1="-4.8815" x2="69.7842" y2="34.1046" gradientUnits="userSpaceOnUse">
<stop stop-color="#29ABE2"/>
<stop offset="1" stop-color="#2E3192"/>
</linearGradient>
<linearGradient id="paint8_linear_1186_7264" x1="11.5858" y1="-4.72067" x2="69.6758" y2="34.2654" gradientUnits="userSpaceOnUse">
<stop stop-color="#29ABE2"/>
<stop offset="1" stop-color="#2E3192"/>
</linearGradient>
<linearGradient id="paint9_linear_1186_7264" x1="12.5655" y1="-6.17984" x2="70.6555" y2="32.8063" gradientUnits="userSpaceOnUse">
<stop stop-color="#29ABE2"/>
<stop offset="1" stop-color="#2E3192"/>
</linearGradient>
<linearGradient id="paint10_linear_1186_7264" x1="12.8068" y1="-6.53945" x2="70.8968" y2="32.4467" gradientUnits="userSpaceOnUse">
<stop stop-color="#29ABE2"/>
<stop offset="1" stop-color="#2E3192"/>
</linearGradient>
<linearGradient id="paint11_linear_1186_7264" x1="7.21528" y1="1.79217" x2="65.3053" y2="40.7783" gradientUnits="userSpaceOnUse">
<stop stop-color="#29ABE2"/>
<stop offset="1" stop-color="#2E3192"/>
</linearGradient>
<linearGradient id="paint12_linear_1186_7264" x1="5.8264" y1="3.86148" x2="63.9164" y2="42.8476" gradientUnits="userSpaceOnUse">
<stop stop-color="#29ABE2"/>
<stop offset="1" stop-color="#2E3192"/>
</linearGradient>
<linearGradient id="paint13_linear_1186_7264" x1="9.31616" y1="-1.33842" x2="67.4062" y2="37.6477" gradientUnits="userSpaceOnUse">
<stop stop-color="#29ABE2"/>
<stop offset="1" stop-color="#2E3192"/>
</linearGradient>
<linearGradient id="paint14_linear_1186_7264" x1="8.18514" y1="0.346562" x2="66.2752" y2="39.3327" gradientUnits="userSpaceOnUse">
<stop stop-color="#29ABE2"/>
<stop offset="1" stop-color="#2E3192"/>
</linearGradient>
<linearGradient id="paint15_linear_1186_7264" x1="11.2389" y1="-4.20405" x2="69.3289" y2="34.7821" gradientUnits="userSpaceOnUse">
<stop stop-color="#29ABE2"/>
<stop offset="1" stop-color="#2E3192"/>
</linearGradient>
<linearGradient id="paint16_linear_1186_7264" x1="10.3465" y1="-2.87437" x2="68.4365" y2="36.1118" gradientUnits="userSpaceOnUse">
<stop stop-color="#29ABE2"/>
<stop offset="1" stop-color="#2E3192"/>
</linearGradient>
<linearGradient id="paint17_linear_1186_7264" x1="12.657" y1="-6.31632" x2="70.747" y2="32.6698" gradientUnits="userSpaceOnUse">
<stop stop-color="#29ABE2"/>
<stop offset="1" stop-color="#2E3192"/>
</linearGradient>
<linearGradient id="paint18_linear_1186_7264" x1="11.9697" y1="-5.29347" x2="70.0597" y2="33.6926" gradientUnits="userSpaceOnUse">
<stop stop-color="#29ABE2"/>
<stop offset="1" stop-color="#2E3192"/>
</linearGradient>
<linearGradient id="paint19_linear_1186_7264" x1="13.4423" y1="-7.48779" x2="71.5323" y2="31.4983" gradientUnits="userSpaceOnUse">
<stop stop-color="#29ABE2"/>
<stop offset="1" stop-color="#2E3192"/>
</linearGradient>
<linearGradient id="paint20_linear_1186_7264" x1="12.9029" y1="-6.68399" x2="70.9929" y2="32.3021" gradientUnits="userSpaceOnUse">
<stop stop-color="#29ABE2"/>
<stop offset="1" stop-color="#2E3192"/>
</linearGradient>
<linearGradient id="paint21_linear_1186_7264" x1="4.43286" y1="5.93746" x2="62.5229" y2="44.9236" gradientUnits="userSpaceOnUse">
<stop stop-color="#29ABE2"/>
<stop offset="1" stop-color="#2E3192"/>
</linearGradient>
<linearGradient id="paint22_linear_1186_7264" x1="2.77119" y1="8.41328" x2="60.8612" y2="47.3994" gradientUnits="userSpaceOnUse">
<stop stop-color="#29ABE2"/>
<stop offset="1" stop-color="#2E3192"/>
</linearGradient>
<linearGradient id="paint23_linear_1186_7264" x1="6.97076" y1="2.156" x2="65.0608" y2="41.1421" gradientUnits="userSpaceOnUse">
<stop stop-color="#29ABE2"/>
<stop offset="1" stop-color="#2E3192"/>
</linearGradient>
<linearGradient id="paint24_linear_1186_7264" x1="5.35111" y1="4.56871" x2="63.4411" y2="43.5548" gradientUnits="userSpaceOnUse">
<stop stop-color="#29ABE2"/>
<stop offset="1" stop-color="#2E3192"/>
</linearGradient>
<linearGradient id="paint25_linear_1186_7264" x1="9.29447" y1="-1.30608" x2="67.3845" y2="37.68" gradientUnits="userSpaceOnUse">
<stop stop-color="#29ABE2"/>
<stop offset="1" stop-color="#2E3192"/>
</linearGradient>
<linearGradient id="paint26_linear_1186_7264" x1="7.72171" y1="1.03765" x2="65.8117" y2="40.0238" gradientUnits="userSpaceOnUse">
<stop stop-color="#29ABE2"/>
<stop offset="1" stop-color="#2E3192"/>
</linearGradient>
<linearGradient id="paint27_linear_1186_7264" x1="11.0059" y1="-3.85688" x2="69.096" y2="35.1293" gradientUnits="userSpaceOnUse">
<stop stop-color="#29ABE2"/>
<stop offset="1" stop-color="#2E3192"/>
</linearGradient>
<linearGradient id="paint28_linear_1186_7264" x1="9.51703" y1="-1.63897" x2="67.607" y2="37.3472" gradientUnits="userSpaceOnUse">
<stop stop-color="#29ABE2"/>
<stop offset="1" stop-color="#2E3192"/>
</linearGradient>
<linearGradient id="paint29_linear_1186_7264" x1="11.9524" y1="-5.26638" x2="70.0424" y2="33.7197" gradientUnits="userSpaceOnUse">
<stop stop-color="#29ABE2"/>
<stop offset="1" stop-color="#2E3192"/>
</linearGradient>
<linearGradient id="paint30_linear_1186_7264" x1="10.5664" y1="-3.20192" x2="68.6564" y2="35.7842" gradientUnits="userSpaceOnUse">
<stop stop-color="#29ABE2"/>
<stop offset="1" stop-color="#2E3192"/>
</linearGradient>
<linearGradient id="paint31_linear_1186_7264" x1="12.1001" y1="-5.48638" x2="70.1901" y2="33.4998" gradientUnits="userSpaceOnUse">
<stop stop-color="#29ABE2"/>
<stop offset="1" stop-color="#2E3192"/>
</linearGradient>
<linearGradient id="paint32_linear_1186_7264" x1="10.7578" y1="-3.48629" x2="68.8478" y2="35.4999" gradientUnits="userSpaceOnUse">
<stop stop-color="#29ABE2"/>
<stop offset="1" stop-color="#2E3192"/>
</linearGradient>
<linearGradient id="paint33_linear_1186_7264" x1="5.02339" y1="5.05767" x2="63.1134" y2="44.0438" gradientUnits="userSpaceOnUse">
<stop stop-color="#29ABE2"/>
<stop offset="1" stop-color="#2E3192"/>
</linearGradient>
<linearGradient id="paint34_linear_1186_7264" x1="7.89011" y1="0.785458" x2="65.9801" y2="39.7716" gradientUnits="userSpaceOnUse">
<stop stop-color="#29ABE2"/>
<stop offset="1" stop-color="#2E3192"/>
</linearGradient>
<linearGradient id="paint35_linear_1186_7264" x1="6.54043" y1="2.79697" x2="64.6305" y2="41.7831" gradientUnits="userSpaceOnUse">
<stop stop-color="#29ABE2"/>
<stop offset="1" stop-color="#2E3192"/>
</linearGradient>
<linearGradient id="paint36_linear_1186_7264" x1="3.2219" y1="7.7413" x2="61.3119" y2="46.7274" gradientUnits="userSpaceOnUse">
<stop stop-color="#29ABE2"/>
<stop offset="1" stop-color="#2E3192"/>
</linearGradient>
<linearGradient id="paint37_linear_1186_7264" x1="1.38466" y1="10.48" x2="59.4747" y2="49.4661" gradientUnits="userSpaceOnUse">
<stop stop-color="#29ABE2"/>
<stop offset="1" stop-color="#2E3192"/>
</linearGradient>
<linearGradient id="paint38_linear_1186_7264" x1="5.12474" y1="4.90748" x2="63.2147" y2="43.8936" gradientUnits="userSpaceOnUse">
<stop stop-color="#29ABE2"/>
<stop offset="1" stop-color="#2E3192"/>
</linearGradient>
<linearGradient id="paint39_linear_1186_7264" x1="3.49047" y1="7.34252" x2="61.5805" y2="46.3286" gradientUnits="userSpaceOnUse">
<stop stop-color="#29ABE2"/>
<stop offset="1" stop-color="#2E3192"/>
</linearGradient>
<linearGradient id="paint40_linear_1186_7264" x1="-2.26516" y1="15.9178" x2="55.8248" y2="54.9039" gradientUnits="userSpaceOnUse">
<stop stop-color="#29ABE2"/>
<stop offset="1" stop-color="#2E3192"/>
</linearGradient>
<linearGradient id="paint41_linear_1186_7264" x1="-3.96128" y1="18.4443" x2="54.1287" y2="57.4304" gradientUnits="userSpaceOnUse">
<stop stop-color="#29ABE2"/>
<stop offset="1" stop-color="#2E3192"/>
</linearGradient>
<linearGradient id="paint42_linear_1186_7264" x1="-0.397461" y1="13.1337" x2="57.6925" y2="52.1198" gradientUnits="userSpaceOnUse">
<stop stop-color="#29ABE2"/>
<stop offset="1" stop-color="#2E3192"/>
</linearGradient>
<linearGradient id="paint43_linear_1186_7264" x1="-2.10785" y1="15.6837" x2="55.9822" y2="54.6699" gradientUnits="userSpaceOnUse">
<stop stop-color="#29ABE2"/>
<stop offset="1" stop-color="#2E3192"/>
</linearGradient>
<linearGradient id="paint44_linear_1186_7264" x1="1.90531" y1="9.70359" x2="59.9953" y2="48.6897" gradientUnits="userSpaceOnUse">
<stop stop-color="#29ABE2"/>
<stop offset="1" stop-color="#2E3192"/>
</linearGradient>
<linearGradient id="paint45_linear_1186_7264" x1="0.211343" y1="12.2284" x2="58.3014" y2="51.2145" gradientUnits="userSpaceOnUse">
<stop stop-color="#29ABE2"/>
<stop offset="1" stop-color="#2E3192"/>
</linearGradient>
<linearGradient id="paint46_linear_1186_7264" x1="1.04731" y1="10.981" x2="59.1373" y2="49.9671" gradientUnits="userSpaceOnUse">
<stop stop-color="#29ABE2"/>
<stop offset="1" stop-color="#2E3192"/>
</linearGradient>
<linearGradient id="paint47_linear_1186_7264" x1="-0.447801" y1="13.2103" x2="57.6422" y2="52.1964" gradientUnits="userSpaceOnUse">
<stop stop-color="#29ABE2"/>
<stop offset="1" stop-color="#2E3192"/>
</linearGradient>
<linearGradient id="paint48_linear_1186_7264" x1="3.54599" y1="7.25811" x2="61.636" y2="46.2442" gradientUnits="userSpaceOnUse">
<stop stop-color="#29ABE2"/>
<stop offset="1" stop-color="#2E3192"/>
</linearGradient>
<linearGradient id="paint49_linear_1186_7264" x1="1.8541" y1="9.78001" x2="59.9441" y2="48.7661" gradientUnits="userSpaceOnUse">
<stop stop-color="#29ABE2"/>
<stop offset="1" stop-color="#2E3192"/>
</linearGradient>
<linearGradient id="paint50_linear_1186_7264" x1="5.83242" y1="3.85264" x2="63.9224" y2="42.8388" gradientUnits="userSpaceOnUse">
<stop stop-color="#29ABE2"/>
<stop offset="1" stop-color="#2E3192"/>
</linearGradient>
<linearGradient id="paint51_linear_1186_7264" x1="3.97008" y1="6.62745" x2="62.0601" y2="45.6136" gradientUnits="userSpaceOnUse">
<stop stop-color="#29ABE2"/>
<stop offset="1" stop-color="#2E3192"/>
</linearGradient>
<linearGradient id="paint52_linear_1186_7264" x1="7.51426" y1="1.34476" x2="65.6043" y2="40.3309" gradientUnits="userSpaceOnUse">
<stop stop-color="#29ABE2"/>
<stop offset="1" stop-color="#2E3192"/>
</linearGradient>
<linearGradient id="paint53_linear_1186_7264" x1="5.58278" y1="4.22365" x2="63.6728" y2="43.2098" gradientUnits="userSpaceOnUse">
<stop stop-color="#29ABE2"/>
<stop offset="1" stop-color="#2E3192"/>
</linearGradient>
<linearGradient id="paint54_linear_1186_7264" x1="8.447" y1="-0.0427773" x2="66.537" y2="38.9434" gradientUnits="userSpaceOnUse">
<stop stop-color="#29ABE2"/>
<stop offset="1" stop-color="#2E3192"/>
</linearGradient>
<linearGradient id="paint55_linear_1186_7264" x1="6.53021" y1="2.8131" x2="64.6202" y2="41.7992" gradientUnits="userSpaceOnUse">
<stop stop-color="#29ABE2"/>
<stop offset="1" stop-color="#2E3192"/>
</linearGradient>
<linearGradient id="paint56_linear_1186_7264" x1="8.59125" y1="-0.257804" x2="66.6812" y2="38.7282" gradientUnits="userSpaceOnUse">
<stop stop-color="#29ABE2"/>
<stop offset="1" stop-color="#2E3192"/>
</linearGradient>
<linearGradient id="paint57_linear_1186_7264" x1="6.69984" y1="2.55886" x2="64.7898" y2="41.5449" gradientUnits="userSpaceOnUse">
<stop stop-color="#29ABE2"/>
<stop offset="1" stop-color="#2E3192"/>
</linearGradient>
<linearGradient id="paint58_linear_1186_7264" x1="-1.7132" y1="15.0952" x2="56.3768" y2="54.0813" gradientUnits="userSpaceOnUse">
<stop stop-color="#29ABE2"/>
<stop offset="1" stop-color="#2E3192"/>
</linearGradient>
<linearGradient id="paint59_linear_1186_7264" x1="-2.81298" y1="16.7333" x2="55.277" y2="55.7194" gradientUnits="userSpaceOnUse">
<stop stop-color="#29ABE2"/>
<stop offset="1" stop-color="#2E3192"/>
</linearGradient>
<linearGradient id="paint60_linear_1186_7264" x1="0.282111" y1="12.1213" x2="58.3721" y2="51.1074" gradientUnits="userSpaceOnUse">
<stop stop-color="#29ABE2"/>
<stop offset="1" stop-color="#2E3192"/>
</linearGradient>
<linearGradient id="paint61_linear_1186_7264" x1="-1.18578" y1="14.3107" x2="56.9043" y2="53.2968" gradientUnits="userSpaceOnUse">
<stop stop-color="#29ABE2"/>
<stop offset="1" stop-color="#2E3192"/>
</linearGradient>
<linearGradient id="paint62_linear_1186_7264" x1="2.10607" y1="9.40449" x2="60.1961" y2="48.3906" gradientUnits="userSpaceOnUse">
<stop stop-color="#29ABE2"/>
<stop offset="1" stop-color="#2E3192"/>
</linearGradient>
<linearGradient id="paint63_linear_1186_7264" x1="0.315746" y1="12.0722" x2="58.4057" y2="51.0583" gradientUnits="userSpaceOnUse">
<stop stop-color="#29ABE2"/>
<stop offset="1" stop-color="#2E3192"/>
</linearGradient>
<linearGradient id="paint64_linear_1186_7264" x1="3.44722" y1="7.40602" x2="61.5372" y2="46.3922" gradientUnits="userSpaceOnUse">
<stop stop-color="#29ABE2"/>
<stop offset="1" stop-color="#2E3192"/>
</linearGradient>
<linearGradient id="paint65_linear_1186_7264" x1="1.46267" y1="10.3633" x2="59.5527" y2="49.3494" gradientUnits="userSpaceOnUse">
<stop stop-color="#29ABE2"/>
<stop offset="1" stop-color="#2E3192"/>
</linearGradient>
<linearGradient id="paint66_linear_1186_7264" x1="4.18855" y1="6.30199" x2="62.2786" y2="45.2881" gradientUnits="userSpaceOnUse">
<stop stop-color="#29ABE2"/>
<stop offset="1" stop-color="#2E3192"/>
</linearGradient>
<linearGradient id="paint67_linear_1186_7264" x1="2.13675" y1="9.35899" x2="60.2267" y2="48.3451" gradientUnits="userSpaceOnUse">
<stop stop-color="#29ABE2"/>
<stop offset="1" stop-color="#2E3192"/>
</linearGradient>
<linearGradient id="paint68_linear_1186_7264" x1="4.30517" y1="6.12744" x2="62.3952" y2="45.1136" gradientUnits="userSpaceOnUse">
<stop stop-color="#29ABE2"/>
<stop offset="1" stop-color="#2E3192"/>
</linearGradient>
<linearGradient id="paint69_linear_1186_7264" x1="2.25631" y1="9.18015" x2="60.3463" y2="48.1663" gradientUnits="userSpaceOnUse">
<stop stop-color="#29ABE2"/>
<stop offset="1" stop-color="#2E3192"/>
</linearGradient>
<linearGradient id="paint70_linear_1186_7264" x1="-3.66926" y1="18.0102" x2="54.4207" y2="56.9964" gradientUnits="userSpaceOnUse">
<stop stop-color="#29ABE2"/>
<stop offset="1" stop-color="#2E3192"/>
</linearGradient>
<linearGradient id="paint71_linear_1186_7264" x1="-4.20957" y1="18.8151" x2="53.8805" y2="57.8013" gradientUnits="userSpaceOnUse">
<stop stop-color="#29ABE2"/>
<stop offset="1" stop-color="#2E3192"/>
</linearGradient>
<linearGradient id="paint72_linear_1186_7264" x1="-2.52243" y1="16.3005" x2="55.5676" y2="55.2866" gradientUnits="userSpaceOnUse">
<stop stop-color="#29ABE2"/>
<stop offset="1" stop-color="#2E3192"/>
</linearGradient>
<linearGradient id="paint73_linear_1186_7264" x1="-3.54473" y1="17.8252" x2="54.5453" y2="56.8113" gradientUnits="userSpaceOnUse">
<stop stop-color="#29ABE2"/>
<stop offset="1" stop-color="#2E3192"/>
</linearGradient>
<linearGradient id="paint74_linear_1186_7264" x1="-1.47666" y1="14.7418" x2="56.6133" y2="53.7279" gradientUnits="userSpaceOnUse">
<stop stop-color="#29ABE2"/>
<stop offset="1" stop-color="#2E3192"/>
</linearGradient>
<linearGradient id="paint75_linear_1186_7264" x1="-2.92458" y1="16.8997" x2="55.1654" y2="55.8858" gradientUnits="userSpaceOnUse">
<stop stop-color="#29ABE2"/>
<stop offset="1" stop-color="#2E3192"/>
</linearGradient>
<linearGradient id="paint76_linear_1186_7264" x1="-0.709915" y1="13.6002" x2="57.3801" y2="52.5864" gradientUnits="userSpaceOnUse">
<stop stop-color="#29ABE2"/>
<stop offset="1" stop-color="#2E3192"/>
</linearGradient>
<linearGradient id="paint77_linear_1186_7264" x1="-2.453" y1="16.1972" x2="55.637" y2="55.1833" gradientUnits="userSpaceOnUse">
<stop stop-color="#29ABE2"/>
<stop offset="1" stop-color="#2E3192"/>
</linearGradient>
<linearGradient id="paint78_linear_1186_7264" x1="-0.283944" y1="12.9653" x2="57.8061" y2="51.9515" gradientUnits="userSpaceOnUse">
<stop stop-color="#29ABE2"/>
<stop offset="1" stop-color="#2E3192"/>
</linearGradient>
<linearGradient id="paint79_linear_1186_7264" x1="-2.1787" y1="15.7882" x2="55.9113" y2="54.7743" gradientUnits="userSpaceOnUse">
<stop stop-color="#29ABE2"/>
<stop offset="1" stop-color="#2E3192"/>
</linearGradient>
<linearGradient id="paint80_linear_1186_7264" x1="-0.217644" y1="12.8661" x2="57.8724" y2="51.8522" gradientUnits="userSpaceOnUse">
<stop stop-color="#29ABE2"/>
<stop offset="1" stop-color="#2E3192"/>
</linearGradient>
<linearGradient id="paint81_linear_1186_7264" x1="-2.13057" y1="15.7177" x2="55.9594" y2="54.7038" gradientUnits="userSpaceOnUse">
<stop stop-color="#29ABE2"/>
<stop offset="1" stop-color="#2E3192"/>
</linearGradient>
<linearGradient id="paint82_linear_1186_7264" x1="-5.5429" y1="20.8023" x2="52.5471" y2="59.7884" gradientUnits="userSpaceOnUse">
<stop stop-color="#29ABE2"/>
<stop offset="1" stop-color="#2E3192"/>
</linearGradient>
<linearGradient id="paint83_linear_1186_7264" x1="-6.46094" y1="22.1685" x2="51.6291" y2="61.1546" gradientUnits="userSpaceOnUse">
<stop stop-color="#29ABE2"/>
<stop offset="1" stop-color="#2E3192"/>
</linearGradient>
<linearGradient id="paint84_linear_1186_7264" x1="-3.7057" y1="18.0645" x2="54.3843" y2="57.0506" gradientUnits="userSpaceOnUse">
<stop stop-color="#29ABE2"/>
<stop offset="1" stop-color="#2E3192"/>
</linearGradient>
<linearGradient id="paint85_linear_1186_7264" x1="-4.7956" y1="19.6878" x2="53.2944" y2="58.6739" gradientUnits="userSpaceOnUse">
<stop stop-color="#29ABE2"/>
<stop offset="1" stop-color="#2E3192"/>
</linearGradient>
<linearGradient id="paint86_linear_1186_7264" x1="-1.43985" y1="14.6877" x2="56.6502" y2="53.6739" gradientUnits="userSpaceOnUse">
<stop stop-color="#29ABE2"/>
<stop offset="1" stop-color="#2E3192"/>
</linearGradient>
<linearGradient id="paint87_linear_1186_7264" x1="-2.72769" y1="16.6078" x2="55.3623" y2="55.5939" gradientUnits="userSpaceOnUse">
<stop stop-color="#29ABE2"/>
<stop offset="1" stop-color="#2E3192"/>
</linearGradient>
<linearGradient id="paint88_linear_1186_7264" x1="-6.98183" y1="22.9451" x2="51.1082" y2="61.9313" gradientUnits="userSpaceOnUse">
<stop stop-color="#29ABE2"/>
<stop offset="1" stop-color="#2E3192"/>
</linearGradient>
<linearGradient id="paint89_linear_1186_7264" x1="-7.04115" y1="23.0342" x2="51.0488" y2="62.0203" gradientUnits="userSpaceOnUse">
<stop stop-color="#29ABE2"/>
<stop offset="1" stop-color="#2E3192"/>
</linearGradient>
<linearGradient id="paint90_linear_1186_7264" x1="-5.51407" y1="20.7587" x2="52.5759" y2="59.7448" gradientUnits="userSpaceOnUse">
<stop stop-color="#29ABE2"/>
<stop offset="1" stop-color="#2E3192"/>
</linearGradient>
<linearGradient id="paint91_linear_1186_7264" x1="-5.86468" y1="21.2809" x2="52.2253" y2="60.267" gradientUnits="userSpaceOnUse">
<stop stop-color="#29ABE2"/>
<stop offset="1" stop-color="#2E3192"/>
</linearGradient>
<linearGradient id="paint92_linear_1186_7264" x1="-3.70144" y1="18.0579" x2="54.3886" y2="57.044" gradientUnits="userSpaceOnUse">
<stop stop-color="#29ABE2"/>
<stop offset="1" stop-color="#2E3192"/>
</linearGradient>
<linearGradient id="paint93_linear_1186_7264" x1="-4.41624" y1="19.1233" x2="53.6737" y2="58.1094" gradientUnits="userSpaceOnUse">
<stop stop-color="#29ABE2"/>
<stop offset="1" stop-color="#2E3192"/>
</linearGradient>
<linearGradient id="paint94_linear_1186_7264" x1="-6.71649" y1="22.55" x2="51.3734" y2="61.5361" gradientUnits="userSpaceOnUse">
<stop stop-color="#29ABE2"/>
<stop offset="1" stop-color="#2E3192"/>
</linearGradient>
<linearGradient id="paint95_linear_1186_7264" x1="-5.97368" y1="21.4422" x2="52.1164" y2="60.4283" gradientUnits="userSpaceOnUse">
<stop stop-color="#29ABE2"/>
<stop offset="1" stop-color="#2E3192"/>
</linearGradient>
<linearGradient id="paint96_linear_1186_7264" x1="-5.87573" y1="21.2973" x2="52.2143" y2="60.2834" gradientUnits="userSpaceOnUse">
<stop stop-color="#29ABE2"/>
<stop offset="1" stop-color="#2E3192"/>
</linearGradient>
<linearGradient id="paint97_linear_1186_7264" x1="-5.48746" y1="20.7191" x2="52.6025" y2="59.7052" gradientUnits="userSpaceOnUse">
<stop stop-color="#29ABE2"/>
<stop offset="1" stop-color="#2E3192"/>
</linearGradient>
<linearGradient id="paint98_linear_1186_7264" x1="-4.82219" y1="19.727" x2="53.2678" y2="58.7131" gradientUnits="userSpaceOnUse">
<stop stop-color="#29ABE2"/>
<stop offset="1" stop-color="#2E3192"/>
</linearGradient>
<linearGradient id="paint99_linear_1186_7264" x1="-4.91" y1="19.8583" x2="53.18" y2="58.8444" gradientUnits="userSpaceOnUse">
<stop stop-color="#29ABE2"/>
<stop offset="1" stop-color="#2E3192"/>
</linearGradient>
</defs>
</svg>
