<svg width="18" height="20" viewBox="0 0 18 20" fill="none" xmlns="http://www.w3.org/2000/svg">
<path d="M14.2909 8.91145C14.8108 13.7856 16.8553 15.2592 16.8553 15.2592H0.75C0.75 15.2592 3.43421 13.325 3.43421 6.55369C3.43421 5.01481 3.99968 3.53849 5.00626 2.4503C6.01284 1.36211 7.38 0.75 8.80263 0.75C9.10505 0.75 9.4033 0.777205 9.69737 0.831614M10.3505 17.9797C10.1932 18.2546 9.96744 18.4827 9.69578 18.6413C9.42412 18.7999 9.11613 18.8833 8.80263 18.8833C8.48913 18.8833 8.18114 18.7999 7.90948 18.6413C7.63782 18.4827 7.41204 18.2546 7.25474 17.9797" stroke="#6A7A8C" stroke-width="1.5" stroke-linecap="round" stroke-linejoin="round"/>
<path d="M16.9641 5.39415C16.4607 5.90434 15.7779 6.19096 15.066 6.19096C14.3541 6.19096 13.6714 5.90434 13.168 5.39415C12.6646 4.88396 12.3818 4.192 12.3818 3.47048C12.3818 2.74896 12.6646 2.057 13.168 1.54681C13.6714 1.03662 14.3541 0.75 15.066 0.75C15.7779 0.75 16.4607 1.03662 16.9641 1.54681C17.4675 2.057 17.7503 2.74896 17.7503 3.47048C17.7503 4.192 17.4675 4.88396 16.9641 5.39415Z" fill="#007AFF"/>
</svg>
