<svg width="71" height="70" viewBox="0 0 71 70" fill="none" xmlns="http://www.w3.org/2000/svg">
<path d="M15.4446 5.77669L14.3901 6.51024C15.1007 6.00592 15.6967 5.61622 16.3615 5.18068C16.4074 5.15775 16.4303 5.13483 16.4761 5.11191L15.4446 5.77669Z" fill="url(#paint0_linear_374_814)"/>
<path d="M2.60742 21.571C1.96557 22.9464 1.62171 24.2989 1.91972 24.276C2.33234 24.2072 4.02868 20.677 3.91406 19.8288C3.7536 19.462 3.11174 20.4477 2.60742 21.571Z" fill="url(#paint1_linear_374_814)"/>
<path d="M1.23201 38.8094C1.30078 40.6433 2.05726 42.0875 2.63034 41.5373C3.38682 40.8267 3.18051 37.2965 2.14895 36.5629C1.43832 36.2649 1.18616 37.6862 1.23201 38.8094Z" fill="url(#paint2_linear_374_814)"/>
<path d="M24.9349 2.22355C24.4535 3.0488 22.6425 3.62189 22.5279 3.14049C22.4592 2.79664 23.3073 2.17771 24.2472 1.8797C25.2787 1.62754 24.9807 2.15478 24.9349 2.22355Z" fill="url(#paint3_linear_374_814)"/>
<path d="M25.508 5.387C25.485 5.52454 25.3933 5.61623 25.21 5.66208C23.399 6.12055 21.6568 6.62487 19.9834 7.17503C19.8229 7.22088 19.7542 7.17503 19.7771 7.03749C19.8688 6.71656 19.9834 6.41856 20.0751 6.12055C20.5565 4.9973 21.7714 4.01159 23.2385 3.5302C24.614 3.18635 25.4621 3.55312 25.508 4.53883C25.5309 4.83684 25.508 5.11192 25.508 5.387Z" fill="url(#paint4_linear_374_814)"/>
<path d="M30.7804 0.985686C31.0555 1.49 29.4967 2.01724 28.6026 1.71924C28.0754 1.53585 28.0983 1.16907 28.6485 0.916915C28.8777 0.802298 29.084 0.756451 29.2445 0.733527C30.0927 0.573063 30.6658 0.756451 30.7804 0.985686Z" fill="url(#paint5_linear_374_814)"/>
<path d="M33.7834 3.78235C33.8292 3.89697 33.7604 3.96574 33.577 4.01159C31.6744 4.28667 29.7717 4.65344 27.9149 5.04314C27.7316 5.06607 27.6169 5.02022 27.594 4.9056C27.5711 4.63052 27.5252 4.35544 27.5023 4.10328C27.4794 3.11757 28.3734 2.31525 29.8634 1.99432C31.4222 1.74216 32.7747 2.15478 33.3707 3.02588C33.5083 3.27804 33.6458 3.50727 33.7834 3.78235Z" fill="url(#paint6_linear_374_814)"/>
<path d="M36.6717 0.366774C37.0385 0.527238 37.0843 0.710626 36.7863 0.825243C35.8694 1.1691 33.6687 0.573085 33.898 0.206309C33.9667 0.0916916 34.2647 0.0687681 34.4023 0.0687681C35.3192 -2.38046e-06 36.2591 0.160462 36.6717 0.366774Z" fill="url(#paint7_linear_374_814)"/>
<path d="M41.8983 3.04881C41.9441 3.11758 41.9441 3.11758 41.9441 3.18635C41.8754 3.2322 41.8754 3.2322 41.8066 3.25512C40.2478 3.30097 38.5973 3.41559 36.8322 3.59898C36.6717 3.6219 36.5113 3.64482 36.3508 3.64482C36.1445 3.64482 36.0069 3.59898 35.9152 3.48436C35.7319 3.2322 35.5714 2.98004 35.388 2.75081C34.792 1.85679 35.2734 1.23786 36.6717 1.10032C37.9096 1.03155 39.6976 1.32955 41.0501 2.33818C41.3481 2.56742 41.6232 2.79665 41.8983 3.04881Z" fill="url(#paint8_linear_374_814)"/>
<path d="M41.5544 0.458469C42.1275 0.618934 42.4255 0.756475 42.3109 0.825245C41.967 0.98571 38.9411 0.229235 38.6431 0.0229236C38.689 8.71046e-08 38.689 0 38.8494 0C39.583 0.0687705 40.7292 0.229234 41.5544 0.458469Z" fill="url(#paint9_linear_374_814)"/>
<path d="M48.4544 3.34682C48.569 3.41559 48.569 3.43852 48.5919 3.48436C48.569 3.48436 48.5461 3.50729 48.5232 3.50729C47.2394 3.34682 45.7953 3.25513 44.2135 3.2322C44.0531 3.20928 43.8926 3.16343 43.7322 3.04882C43.4341 2.79666 43.1132 2.56742 42.8152 2.33819C41.5315 1.39833 41.8295 1.14617 42.1046 1.0774C42.2421 1.05447 42.4255 1.05447 42.5631 1.05447C43.6175 1.14617 45.4743 1.62756 47.2853 2.61327C47.6979 2.84251 48.0876 3.09466 48.4544 3.34682Z" fill="url(#paint10_linear_374_814)"/>
<path d="M24.2013 8.94015C24.0409 10.476 21.611 11.668 20.694 10.6594C20.0063 9.94879 20.7857 8.34414 22.4133 7.8169C23.8116 7.47305 24.2701 8.32122 24.2013 8.94015Z" fill="url(#paint11_linear_374_814)"/>
<path d="M26.3791 15.1066C26.3791 15.3129 26.2645 15.4733 26.0352 15.5421C23.6741 16.1381 21.3818 16.8029 19.204 17.5135C18.9748 17.5594 18.8602 17.4906 18.8372 17.2843C18.8143 16.78 18.8143 16.2986 18.7914 15.8172C18.8831 13.8687 20.2127 12.2182 22.2758 11.5305C24.3389 11.0262 25.8518 11.8514 26.1957 13.6853C26.2415 14.1438 26.3103 14.6252 26.3791 15.1066Z" fill="url(#paint12_linear_374_814)"/>
<path d="M33.577 6.9458C33.8521 8.3212 31.3305 9.28399 29.978 8.3212C28.9694 7.58765 29.382 6.1664 31.1013 5.79962C32.6142 5.54746 33.4624 6.32686 33.577 6.9458Z" fill="url(#paint13_linear_374_814)"/>
<path d="M37.2677 12.9747C37.3136 13.181 37.199 13.3185 36.9468 13.3644C34.4481 13.7312 31.9724 14.1896 29.5425 14.7169C29.2903 14.7398 29.1528 14.671 29.084 14.4647C28.9923 13.9833 28.9236 13.5248 28.8319 13.0664C28.6256 11.1866 29.8634 9.71954 32.0412 9.23815C34.2877 8.91722 36.1674 9.85708 36.8322 11.5993C36.9926 12.0348 37.1302 12.4933 37.2677 12.9747Z" fill="url(#paint14_linear_374_814)"/>
<path d="M43.0444 5.93716C43.6404 6.99164 42.2421 7.72519 40.5916 7.19795C39.0099 6.69363 38.3451 5.40992 39.3538 4.83683C39.6288 4.67637 39.9498 4.63052 40.1561 4.6076C41.6003 4.53882 42.7235 5.34115 43.0444 5.93716Z" fill="url(#paint15_linear_374_814)"/>
<path d="M47.973 12.0119C48.0418 12.2182 47.973 12.3328 47.7438 12.3557C45.7036 12.4245 43.5258 12.5621 41.2335 12.8142C41.0272 12.8371 40.8209 12.8601 40.6146 12.883C40.3624 12.883 40.179 12.7913 40.0873 12.6079C39.9268 12.1494 39.7664 11.691 39.6059 11.2554C39.0787 9.49031 40.0873 8.18367 42.1733 7.93151C44.3511 7.86274 46.3225 8.91722 47.3082 10.6823C47.5604 11.095 47.7667 11.5534 47.973 12.0119Z" fill="url(#paint16_linear_374_814)"/>
<path d="M50.9072 6.09765C51.5261 6.80828 51.3657 7.33552 50.5175 7.26675C48.9129 7.17505 46.5976 5.20363 47.377 4.63055C47.5374 4.51593 47.7896 4.51593 47.9271 4.51593C49.1421 4.65347 50.4029 5.50164 50.9072 6.09765Z" fill="url(#paint17_linear_374_814)"/>
<path d="M56.6152 12.4016C56.7068 12.6079 56.6839 12.6996 56.5235 12.6996C54.8271 12.4933 52.9474 12.3558 50.8843 12.3328C50.678 12.3099 50.4946 12.1953 50.38 11.989C50.1507 11.5305 49.9215 11.0721 49.6923 10.6365C48.8212 8.8714 49.3026 7.79399 50.9301 7.81692C52.6723 8.02323 54.575 9.28402 55.7899 11.0262C56.0879 11.4847 56.363 11.9431 56.6152 12.4016Z" fill="url(#paint18_linear_374_814)"/>
<path d="M56.5464 7.31257C57.2112 7.93151 57.4633 8.36705 57.1195 8.36705C56.3171 8.34413 53.062 5.7767 53.4517 5.4787C53.4976 5.43285 53.6122 5.45577 53.7268 5.50162C54.5291 5.73085 55.8128 6.62487 56.5464 7.31257Z" fill="url(#paint19_linear_374_814)"/>
<path d="M62.6669 13.9833C62.7816 14.1667 62.7586 14.1896 62.7586 14.2584C62.7357 14.2584 62.7128 14.2584 62.7128 14.2584C61.6583 13.7999 60.3746 13.4102 58.8846 13.0893C58.7241 13.0434 58.5866 12.9059 58.449 12.6996C58.1739 12.2411 57.8989 11.7826 57.6009 11.3471C56.3171 9.32984 56.6381 8.73383 57.3029 8.84844C57.3716 8.84844 57.4404 8.87137 57.4862 8.89429C58.747 9.35276 60.4204 10.7969 61.75 12.6079C62.048 13.0434 62.3689 13.5019 62.6669 13.9833Z" fill="url(#paint20_linear_374_814)"/>
<path d="M25.4163 20.4936C25.5309 22.6484 22.8259 24.1613 21.3818 22.7401C20.2585 21.6398 20.7628 19.3933 22.7801 18.7056C24.591 18.27 25.3475 19.5537 25.4163 20.4936Z" fill="url(#paint21_linear_374_814)"/>
<path d="M28.9236 29.044C28.9465 29.3191 28.8548 29.4796 28.6026 29.5713C26.104 30.2131 23.6741 30.9008 21.3588 31.6573C21.1296 31.7032 20.9691 31.6115 20.8774 31.3593C20.7399 30.7633 20.6024 30.1444 20.4648 29.5484C20.0293 26.9809 21.2213 24.872 23.5824 24.0467C25.9894 23.4966 27.892 24.7115 28.5339 27.2102C28.6714 27.8062 28.786 28.4251 28.9236 29.044Z" fill="url(#paint22_linear_374_814)"/>
<path d="M36.7176 18.0866C36.9697 20.1268 34.3335 21.3876 32.5913 20.081C31.1013 18.9577 31.4452 16.6424 33.7146 16.1381C35.5943 15.863 36.6029 17.1238 36.7176 18.0866Z" fill="url(#paint23_linear_374_814)"/>
<path d="M40.5229 26.7746C40.5458 27.0497 40.4312 27.2102 40.179 27.2789C37.5428 27.6686 34.9066 28.15 32.3392 28.7231C32.0641 28.746 31.9036 28.6314 31.8349 28.3793C31.6973 27.7603 31.5827 27.1643 31.4452 26.5454C31.0555 23.978 32.3621 22.0065 34.8837 21.4105C37.474 21.0667 39.5372 22.465 40.179 24.9408C40.2936 25.5368 40.4082 26.1557 40.5229 26.7746Z" fill="url(#paint24_linear_374_814)"/>
<path d="M48.1334 16.8717C48.5231 18.7285 46.2996 19.7142 44.4657 18.5222C42.6547 17.3072 42.884 15.0378 44.8095 14.694C44.8783 14.671 44.97 14.671 45.0388 14.671C46.8497 14.6023 47.9501 15.9089 48.1334 16.8717Z" fill="url(#paint25_linear_374_814)"/>
<path d="M51.9158 25.7431C51.9388 26.0182 51.8241 26.1557 51.5949 26.2015C49.4401 26.2703 47.1477 26.4308 44.7179 26.6829C44.4886 26.7059 44.2823 26.7288 44.0531 26.7517C43.778 26.7517 43.6175 26.6371 43.5488 26.362C43.4341 25.7431 43.3195 25.1471 43.2049 24.5281C42.8381 22.0065 44.1677 20.1727 46.6205 19.8517C49.0962 19.8059 51.0218 21.3418 51.6178 23.8863C51.7095 24.5281 51.8241 25.1471 51.9158 25.7431Z" fill="url(#paint26_linear_374_814)"/>
<path d="M57.6009 17.0551C58.0593 18.6139 56.9131 19.4391 55.446 18.5909C53.658 17.5594 52.9474 15.0607 54.3228 14.6022C54.5062 14.5335 54.6896 14.5335 54.8271 14.5335C56.2942 14.7169 57.3258 16.1152 57.6009 17.0551Z" fill="url(#paint27_linear_374_814)"/>
<path d="M61.1311 26.1557C61.154 26.4078 61.0623 26.5454 60.9018 26.5454C59.1138 26.3162 57.1195 26.1786 54.9417 26.1557C54.7125 26.1328 54.575 25.9723 54.5062 25.7201C54.4145 25.1012 54.2999 24.4823 54.1853 23.8863C53.7956 21.3418 54.7583 19.76 56.7068 19.76C58.6783 20.0122 60.2829 21.7544 60.8331 24.3218C60.9477 24.9407 61.0394 25.5368 61.1311 26.1557Z" fill="url(#paint28_linear_374_814)"/>
<path d="M64.3862 18.5222C64.8217 19.7371 64.5696 20.4477 63.7902 20.1039C62.346 19.462 60.7643 16.0235 61.7729 15.7255C61.8875 15.7026 62.0022 15.7255 62.1168 15.7484C63.1254 16.1152 64.0653 17.5823 64.3862 18.5222Z" fill="url(#paint29_linear_374_814)"/>
<path d="M67.5496 27.8291C67.5726 28.173 67.5038 28.173 67.4121 28.173C66.2889 27.6686 64.9364 27.256 63.3546 26.9351C63.1942 26.8663 63.0796 26.7059 63.0337 26.4537C62.942 25.8348 62.8503 25.2388 62.7357 24.6198C62.346 22.0982 62.8962 20.6999 64.1799 20.975C65.5324 21.5022 66.7473 23.4737 67.2516 25.9952C67.3892 26.6142 67.4809 27.2331 67.5496 27.8291Z" fill="url(#paint30_linear_374_814)"/>
<path d="M68.054 21.0896C68.2373 21.5022 68.6271 22.465 68.4895 22.6025C68.054 22.5567 65.9908 18.2241 66.2889 17.9491C66.3347 17.9491 66.3576 17.972 66.4035 18.0408C66.8619 18.5451 67.5955 19.9893 68.054 21.0896Z" fill="url(#paint31_linear_374_814)"/>
<path d="M70.736 30.6258C70.7589 30.855 70.7589 30.8779 70.7589 30.9467C70.3922 30.2131 69.7732 29.5484 68.9021 28.9753C68.8104 28.8836 68.7417 28.7231 68.6958 28.448C68.6271 27.8291 68.5354 27.2331 68.4207 26.6142C67.8018 22.9464 68.4207 23.1986 68.5354 23.2673C68.5583 23.2903 68.6041 23.3361 68.627 23.359C69.2689 24.1384 69.9795 26.2703 70.438 28.7919C70.5756 29.4108 70.6672 30.0068 70.736 30.6258Z" fill="url(#paint32_linear_374_814)"/>
<path d="M11.7081 10.4302C11.5934 10.5906 11.4788 10.7282 11.3413 10.7969C10.1263 11.4617 9.07185 12.1265 8.17783 12.8142L8.15491 12.8371L8.13199 12.8142C8.15491 12.7684 8.17784 12.7454 8.22368 12.6308C8.52169 12.2182 8.81969 11.8285 9.1177 11.4388C10.9516 9.1923 12.6479 8.04613 12.8313 7.90859C13.0376 7.77105 13.3815 7.58766 13.2668 7.93151C13.1522 8.27536 12.625 9.05476 12.4187 9.35277C12.1894 9.6737 11.9373 10.0405 11.7081 10.4302Z" fill="url(#paint33_linear_374_814)"/>
<path d="M19.6625 3.9199C18.5851 4.88269 17.3014 5.52454 17.3014 5.20362C17.3014 4.88269 18.6997 3.89698 19.823 3.41558C19.9605 3.36974 20.1897 3.25512 20.1439 3.41558C20.098 3.50728 19.9376 3.69067 19.6625 3.9199Z" fill="url(#paint34_linear_374_814)"/>
<path d="M17.9661 7.67937C17.8974 7.83983 17.7828 7.93153 17.6223 8.0003C16.0406 8.57339 14.5735 9.19232 13.221 9.83418C13.1522 9.8571 13.1522 9.8571 13.1064 9.83418C13.1064 9.76541 13.1064 9.76541 13.1522 9.67371C13.3585 9.30694 13.5648 8.96309 13.7941 8.61923C14.8715 7.08336 16.4303 6.00596 17.4389 5.54749C18.9977 4.95148 18.608 6.16642 18.3788 6.71658C18.2183 7.03751 18.1037 7.35844 17.9661 7.67937Z" fill="url(#paint35_linear_374_814)"/>
<path d="M8.86552 14.8544C8.13197 16.5049 6.64195 17.972 6.41271 17.2614C6.2064 16.5966 7.42134 14.3959 8.61336 13.5936C9.30107 13.2039 9.18645 13.8687 9.11768 14.1667C9.07183 14.3042 9.00306 14.5335 8.86552 14.8544Z" fill="url(#paint36_linear_374_814)"/>
<path d="M8.17782 21.7315C8.13197 21.9607 8.04028 22.1441 7.87982 22.2358C6.2981 23.1069 4.89976 23.978 3.73066 24.872C3.70774 24.8949 3.6619 24.8949 3.63897 24.8949C3.59313 24.8261 3.59312 24.8032 3.59312 24.6427C3.66189 24.0926 3.75359 23.5653 3.86821 23.0381C4.3496 20.8833 5.49577 18.9119 6.77949 18.0179C7.99443 17.3301 8.59044 18.1554 8.36121 20.1956C8.26952 20.677 8.22367 21.2042 8.17782 21.7315Z" fill="url(#paint37_linear_374_814)"/>
<path d="M15.7196 11.6451C15.1924 13.2956 13.0147 14.671 12.5791 13.6624C12.2582 12.9059 13.2668 11.1408 14.6652 10.4989C15.8572 10.0634 15.9489 10.9803 15.7196 11.6451Z" fill="url(#paint38_linear_374_814)"/>
<path d="M16.4074 18.1096C16.3844 18.3388 16.2698 18.4993 16.0635 18.591C14.0004 19.3474 12.0748 20.1497 10.3097 20.9979C10.1263 21.0667 10.0576 20.975 10.0346 20.7687C10.0805 20.2414 10.1263 19.7371 10.1722 19.2328C10.4931 17.1926 11.8227 15.3587 13.5649 14.5335C15.2612 13.9146 16.3615 14.7169 16.3844 16.6425C16.4074 17.1238 16.4074 17.6052 16.4074 18.1096Z" fill="url(#paint39_linear_374_814)"/>
<path d="M1.34663 31.749C1.30078 33.6517 0.727696 35.3938 0.29215 34.9124C-0.212167 34.3623 -0.051702 31.0842 0.681849 29.9839C1.20909 29.3879 1.32371 30.7404 1.34663 31.0155C1.34663 31.2447 1.36955 31.5198 1.34663 31.749Z" fill="url(#paint40_linear_374_814)"/>
<path d="M3.40974 40.2536C3.47851 40.5287 3.45558 40.7121 3.36389 40.8267C2.81372 41.3539 2.35525 41.8812 1.96556 42.4084C1.66755 42.8211 1.41539 43.2337 1.232 43.6234C1.232 43.6234 1.20908 43.6463 1.18616 43.6463C1.11739 43.6005 1.09446 43.5775 1.02569 43.3483C0.865229 42.7523 0.704764 42.1563 0.567224 41.5603C0.01706 38.9928 0.0858303 36.7463 0.750611 35.6919C1.48416 34.8895 2.30941 35.944 2.92834 38.4427C3.08881 39.0616 3.22635 39.6805 3.40974 40.2536Z" fill="url(#paint41_linear_374_814)"/>
<path d="M6.91703 27.6228C6.87118 29.663 5.47285 31.451 4.60176 30.557C3.75359 29.6859 4.09744 26.9122 5.47285 25.9264C6.55026 25.3304 6.93995 26.6371 6.91703 27.6228Z" fill="url(#paint42_linear_374_814)"/>
<path d="M9.55323 36.0816C9.59908 36.3567 9.55323 36.54 9.39277 36.6547C7.71935 37.5716 6.22933 38.4885 5.01438 39.4513C4.87684 39.5201 4.78515 39.4284 4.69345 39.1762C4.53299 38.5802 4.37253 37.9842 4.23498 37.3653C3.73067 34.8208 4.32668 32.5284 5.72501 31.4969C7.16919 30.7175 8.47583 31.772 9.11769 34.2706C9.2323 34.8895 9.39277 35.4856 9.55323 36.0816Z" fill="url(#paint43_linear_374_814)"/>
<path d="M15.1924 23.7716C15.2153 25.9035 13.1064 27.5769 11.8914 26.4308C10.837 25.4451 11.2954 22.9235 13.0835 22.0524C14.6193 21.5251 15.1924 22.8089 15.1924 23.7716Z" fill="url(#paint44_linear_374_814)"/>
<path d="M18.31 32.2533C18.3559 32.5284 18.2642 32.7118 18.0579 32.8035C15.8801 33.6058 13.8399 34.454 11.9602 35.348C11.7539 35.4168 11.6393 35.3251 11.5476 35.0729C11.3871 34.4769 11.2496 33.858 11.112 33.262C10.6536 30.7175 11.6164 28.471 13.5649 27.5311C15.5821 26.8205 17.2326 27.9437 17.8745 30.4424C18.0349 31.0384 18.1725 31.6344 18.31 32.2533Z" fill="url(#paint45_linear_374_814)"/>
<path d="M28.7631 36.242C29.1299 38.4656 26.9063 39.9556 25.1871 38.6719C23.6512 37.5257 23.697 34.8437 25.7831 34.133C27.5482 33.7433 28.5797 35.1417 28.7631 36.242Z" fill="url(#paint46_linear_374_814)"/>
<path d="M32.8435 44.8154C32.8893 45.0676 32.8206 45.228 32.5913 45.2968C30.4365 45.847 28.3734 46.443 26.402 47.0848C26.1957 47.1307 26.0352 47.039 25.9206 46.8097C25.6914 46.2596 25.4621 45.7094 25.2329 45.1363C24.4077 42.7294 25.2558 40.6662 27.3877 39.9098C29.6113 39.4055 31.5827 40.6433 32.3621 43.0732C32.5226 43.6921 32.683 44.2652 32.8435 44.8154Z" fill="url(#paint47_linear_374_814)"/>
<path d="M39.8581 33.9038C39.9956 36.1503 37.5199 37.457 35.8465 36.0128C34.3564 34.752 34.6774 32.0699 36.9239 31.5427C38.8265 31.2905 39.7893 32.7576 39.8581 33.9038Z" fill="url(#paint48_linear_374_814)"/>
<path d="M42.8381 42.8669C42.8381 43.1191 42.7235 43.2795 42.5172 43.3483C40.2478 43.6921 38.0013 44.1048 35.8006 44.5862C35.5714 44.6091 35.4339 44.4945 35.3422 44.2652C35.2046 43.6921 35.0671 43.1191 34.9295 42.5231C34.4711 40.0244 35.686 38.0301 38.0013 37.4799C40.4082 37.1819 42.2421 38.6031 42.6318 41.1247C42.7235 41.6978 42.7923 42.2709 42.8381 42.8669Z" fill="url(#paint49_linear_374_814)"/>
<path d="M51.0447 32.7118C51.0218 34.9354 48.569 35.944 47.079 34.3623C45.7494 32.941 46.2767 30.3278 48.4544 30.0527C50.2653 30.0068 51.0677 31.5656 51.0447 32.7118Z" fill="url(#paint50_linear_374_814)"/>
<path d="M52.6723 41.9958C52.6265 42.248 52.5118 42.3855 52.3055 42.4314C50.4487 42.5002 48.4773 42.6377 46.4142 42.844C46.2308 42.8669 46.0245 42.8899 45.8411 42.9128C45.6119 42.9128 45.4743 42.7982 45.4514 42.546C45.4285 41.95 45.3826 41.354 45.3368 40.758C45.268 38.1905 46.7122 36.3567 49.0275 36.0357C51.2969 36.0128 52.764 37.6404 52.764 40.2078C52.7411 40.8038 52.6952 41.3998 52.6723 41.9958Z" fill="url(#paint51_linear_374_814)"/>
<path d="M60.3288 32.8723C60.1912 34.8666 58.5407 35.7148 57.3716 34.3623C56.0879 32.8723 56.5235 29.9151 58.4261 29.9151C59.8703 30.1214 60.3975 31.7719 60.3288 32.8723Z" fill="url(#paint52_linear_374_814)"/>
<path d="M60.6038 42.3397C60.5351 42.5918 60.4204 42.7294 60.26 42.7294C58.7241 42.523 57.0048 42.4314 55.148 42.3855C54.9647 42.3626 54.873 42.225 54.873 41.95C54.9417 41.354 54.9876 40.7579 55.0334 40.139C55.3085 37.5716 56.6839 35.8982 58.4949 35.8982C60.3058 36.1503 61.2457 37.9613 60.9248 40.5287C60.8331 41.1476 60.7184 41.7437 60.6038 42.3397Z" fill="url(#paint53_linear_374_814)"/>
<path d="M66.9995 34.3164C66.839 35.944 65.9221 36.7005 65.1885 35.8294C64.0423 34.4769 64.4091 30.9696 65.7158 31.0842C65.7616 31.0842 65.8074 31.1072 65.8533 31.1072C66.8161 31.5198 67.1141 33.239 66.9995 34.3164Z" fill="url(#paint54_linear_374_814)"/>
<path d="M66.1513 43.7838C66.1055 43.9443 66.0367 44.0818 65.8992 44.1277C64.9134 43.6921 63.7444 43.3483 62.3919 43.0732C62.2543 43.0274 62.2314 42.8669 62.2543 42.6147C62.3919 42.0187 62.5065 41.4227 62.6211 40.8267C63.1713 38.2593 64.2945 36.8151 65.5553 37.0673C66.7703 37.5716 67.1829 39.5659 66.6327 42.0417C66.4952 42.6377 66.3347 43.2108 66.1513 43.7838Z" fill="url(#paint55_linear_374_814)"/>
<path d="M70.5985 36.838C70.4838 38.03 70.1629 38.7177 69.8649 38.4197C69.1772 37.7091 69.3606 33.2849 70.0942 33.3995C70.14 33.3995 70.1858 33.4453 70.2088 33.4683C70.6443 34.0643 70.6902 35.8065 70.5985 36.838Z" fill="url(#paint56_linear_374_814)"/>
<path d="M68.8792 46.1908C68.7875 46.443 68.7417 46.4659 68.6958 46.4888C68.3978 45.8469 67.8706 45.2968 67.1141 44.7925C67.0683 44.7237 67.0224 44.632 67.1141 44.3111C67.2975 43.738 67.4809 43.1649 67.6414 42.5689C68.352 40.0932 69.1543 38.8324 69.7274 39.2908C70.2546 40.0244 70.14 42.1104 69.4523 44.4945C69.2689 45.0675 69.0855 45.6406 68.8792 46.1908Z" fill="url(#paint57_linear_374_814)"/>
<path d="M33.0498 50.4775C33.4853 52.1509 32.2246 53.5951 30.5741 52.6094C28.9465 51.6466 28.5568 49.1938 30.3219 48.5519C31.7661 48.231 32.7976 49.4918 33.0498 50.4775Z" fill="url(#paint58_linear_374_814)"/>
<path d="M36.9239 57.7442C36.9697 57.9505 36.9468 58.0652 36.8093 58.1339C35.388 58.5007 34.0126 58.8904 32.706 59.3259C32.5684 59.3489 32.4309 59.2801 32.2933 59.0967C32.0182 58.6841 31.7432 58.2485 31.4681 57.7901C30.3678 55.8416 30.7345 54.214 32.3621 53.618C34.0584 53.2512 35.6631 54.3286 36.4425 56.3688C36.58 56.8273 36.7634 57.3087 36.9239 57.7442Z" fill="url(#paint59_linear_374_814)"/>
<path d="M41.8754 48.6207C41.8983 50.4775 40.1102 51.8071 38.689 50.4316C37.4511 49.2396 37.7033 46.8556 39.5372 46.42C41.1189 46.2137 41.8524 47.5662 41.8754 48.6207Z" fill="url(#paint60_linear_374_814)"/>
<path d="M43.6175 56.4376C43.5946 56.6439 43.5258 56.7815 43.3654 56.8273C41.8524 57.0565 40.3624 57.3316 38.9182 57.6526C38.7577 57.6755 38.6661 57.5838 38.5973 57.3775C38.4827 56.919 38.3451 56.4376 38.2305 55.9562C37.772 53.8473 38.6202 52.1968 40.3853 51.7612C42.2192 51.5549 43.5029 52.8157 43.6175 54.9705C43.6175 55.4519 43.6175 55.9562 43.6175 56.4376Z" fill="url(#paint61_linear_374_814)"/>
<path d="M50.7697 47.6579C50.4029 49.5376 48.4544 50.6609 47.4458 49.125C46.5517 47.7725 47.2853 45.4114 49.1192 45.1593C50.5863 45.1363 50.976 46.6034 50.7697 47.6579Z" fill="url(#paint62_linear_374_814)"/>
<path d="M50.1966 55.8645C50.1049 56.0708 50.0132 56.2084 49.8756 56.2313C48.6607 56.2771 47.3311 56.3688 45.9557 56.5064C45.8182 56.5293 45.7036 56.5293 45.566 56.5522C45.4055 56.5522 45.3368 56.4376 45.3368 56.2313C45.3826 55.7499 45.4055 55.2456 45.4514 54.7413C45.6577 52.4948 46.8956 50.936 48.6607 50.6838C50.3799 50.6838 51.1593 52.128 50.6321 54.3516C50.4946 54.8559 50.357 55.3602 50.1966 55.8645Z" fill="url(#paint63_linear_374_814)"/>
<path d="M58.1281 47.7954C57.5321 49.4459 55.9733 50.4546 55.3543 49.1708C54.7354 47.8871 55.6524 45.0675 57.3487 45.0446C58.5178 45.2509 58.5178 46.7639 58.1281 47.7954Z" fill="url(#paint64_linear_374_814)"/>
<path d="M55.5148 56.0937C55.3773 56.3001 55.2627 56.4147 55.148 56.4147C54.1394 56.2771 52.9932 56.2084 51.7554 56.1854C51.6408 56.1625 51.6178 56.0479 51.6866 55.8187C51.87 55.3143 52.0534 54.81 52.2368 54.2828C53.0849 52.0134 54.4603 50.5692 55.8587 50.5463C57.2112 50.7526 57.3946 52.3572 56.3401 54.5579C56.0879 55.0851 55.8128 55.5894 55.5148 56.0937Z" fill="url(#paint65_linear_374_814)"/>
<path d="M63.4464 48.9416C62.7357 50.3629 61.5437 51.2569 61.2457 50.2483C60.9019 49.0792 62.1856 45.824 63.4922 46.0533C64.2028 46.3742 64.0194 47.7725 63.4464 48.9416Z" fill="url(#paint66_linear_374_814)"/>
<path d="M59.2284 57.0565C59.1367 57.1711 58.9992 57.3087 58.8846 57.3545C58.2198 57.0795 57.4404 56.8273 56.5464 56.6439C56.5005 56.5981 56.4547 56.5522 56.6152 56.2771C56.9132 55.7957 57.2341 55.2914 57.5092 54.7871C58.8617 52.5177 60.1912 51.3027 61.1769 51.4632C61.9334 51.8071 61.9563 53.2283 60.3058 55.6353C59.962 56.1167 59.6181 56.5981 59.2284 57.0565Z" fill="url(#paint67_linear_374_814)"/>
<path d="M66.2889 50.9589C65.6012 52.128 64.8447 52.7698 64.7301 52.2655C64.5008 51.2569 66.4264 47.7037 67.0224 47.9788C67.0453 47.9788 67.0683 48.0017 67.0683 48.0247C67.4121 48.4602 66.9078 49.8815 66.2889 50.9589Z" fill="url(#paint68_linear_374_814)"/>
<path d="M61.0623 58.6612C60.8101 58.9133 60.7643 58.8904 60.7414 58.8904C60.558 58.4778 60.1912 58.111 59.7098 57.7672C59.7098 57.7213 59.6869 57.6526 59.8932 57.3775C60.2829 56.919 60.6497 56.4376 61.0165 55.9562C62.7128 53.7556 63.859 52.7699 64.3404 53.0908C64.6613 53.5951 64.0424 55.1997 62.2773 57.2858C61.8876 57.7901 61.4749 58.2486 61.0623 58.6612Z" fill="url(#paint69_linear_374_814)"/>
<path d="M37.6804 62.0309C38.0701 62.9937 37.9096 64.0482 36.8093 63.5668C35.388 62.9249 34.5857 61.0452 35.5255 60.5868C35.5485 60.5638 35.6172 60.5638 35.6402 60.5409C36.5113 60.3575 37.3365 61.1828 37.6804 62.0309Z" fill="url(#paint70_linear_374_814)"/>
<path d="M40.7521 66.9595C40.8209 67.12 40.7979 67.1429 40.775 67.1658C40.3395 67.2804 39.9039 67.395 39.5142 67.5326C39.4684 67.5326 39.4225 67.5326 39.2391 67.395C38.9641 67.1658 38.689 66.9136 38.391 66.6615C36.9926 65.3319 37.1073 64.4379 37.772 64.1628C38.1847 64.0941 39.285 64.117 40.2936 66.1113C40.477 66.4093 40.6146 66.6844 40.7521 66.9595Z" fill="url(#paint71_linear_374_814)"/>
<path d="M42.7006 60.9764C42.6547 62.1685 41.8524 63.2459 41.0042 62.3289C40.2248 61.4808 40.1102 59.5323 41.371 59.2113C42.265 59.0967 42.7464 60.0366 42.7006 60.9764Z" fill="url(#paint72_linear_374_814)"/>
<path d="M42.9298 66.5469C42.9069 66.6386 42.884 66.7073 42.8381 66.7761C42.3567 66.8449 41.8983 66.9366 41.4627 67.0283C41.4169 67.0283 41.394 67.0053 41.3252 66.8449C41.2335 66.5698 41.1418 66.2718 41.0501 65.9508C40.5687 64.2316 41.1418 63.4293 41.8524 63.223C42.6318 63.1542 43.3195 63.8419 43.1132 65.5612C43.0444 65.905 42.9757 66.2259 42.9298 66.5469Z" fill="url(#paint73_linear_374_814)"/>
<path d="M47.7667 60.4263C47.2624 61.5725 46.1391 62.6269 45.7494 61.7329C45.3368 60.7701 46.0474 58.6153 47.3082 58.4319C48.1564 58.4319 48.2022 59.4635 47.7667 60.4263Z" fill="url(#paint74_linear_374_814)"/>
<path d="M45.0617 66.3405C44.9929 66.4322 44.9012 66.5239 44.8325 66.5698C44.4428 66.5927 44.0301 66.6156 43.6175 66.6615C43.5717 66.6615 43.5487 66.6615 43.5029 66.6844C43.5029 66.6844 43.48 66.6844 43.48 66.6615C43.48 66.6156 43.457 66.5927 43.5029 66.4552C43.6175 66.1342 43.7092 65.8133 43.8238 65.4695C44.5345 63.2459 45.4972 62.7645 46.0245 62.6728C46.758 62.6957 47.0102 63.521 45.8182 65.309C45.566 65.6758 45.3139 66.0196 45.0617 66.3405Z" fill="url(#paint75_linear_374_814)"/>
<path d="M51.9846 60.518C51.2281 61.5037 49.9444 62.4894 49.8756 61.8017C49.784 61.0223 51.274 58.409 52.4431 58.3632C53.0849 58.5007 52.6952 59.5781 51.9846 60.518Z" fill="url(#paint76_linear_374_814)"/>
<path d="M46.781 66.4322C46.6664 66.5239 46.5517 66.6156 46.46 66.6386C46.1391 66.5927 45.7723 66.5698 45.4056 66.5698C45.4056 66.5239 45.4056 66.501 45.566 66.3406C45.864 66.0196 46.162 65.6758 46.4371 65.3319C47.0331 64.6213 48.5919 62.7186 49.6235 62.6499C50.2195 62.7874 49.8527 63.796 47.9959 65.4236C47.5833 65.7675 47.1936 66.1113 46.781 66.4322Z" fill="url(#paint77_linear_374_814)"/>
<path d="M54.9876 61.1598C54.0477 62.0538 52.8328 62.8103 52.8328 62.3748C52.8328 61.8704 55.2627 58.8445 56.2255 58.9821C56.661 59.2113 55.9274 60.2887 54.9876 61.1598Z" fill="url(#paint78_linear_374_814)"/>
<path d="M47.973 66.7303C47.8813 66.7761 47.6979 66.8907 47.5833 66.9136C47.377 66.8219 47.1248 66.7532 46.8497 66.7073C46.8956 66.6615 46.8956 66.6386 47.1248 66.4781C47.5604 66.1572 48.0188 65.8362 48.4544 65.4924C49.9444 64.3233 51.6178 62.9937 52.3055 63.0625C52.6265 63.2459 51.9617 64.2545 49.5318 65.8133C49.0045 66.1342 48.5002 66.4552 47.973 66.7303Z" fill="url(#paint79_linear_374_814)"/>
<path d="M56.6152 62.306C55.6294 63.0625 54.6208 63.5897 54.5979 63.3605C54.575 63.1313 55.9045 61.8934 56.8902 61.0911C57.2799 60.7702 58.2427 60.0366 58.4949 60.1741C58.6095 60.4722 57.7613 61.4349 56.6152 62.306Z" fill="url(#paint80_linear_374_814)"/>
<path d="M48.569 67.2575C48.2481 67.395 48.1793 67.395 48.1564 67.395C48.0876 67.2575 47.9959 67.1429 47.8354 67.0512C47.9042 67.0053 47.9271 66.9824 48.2022 66.8449C48.7524 66.5698 49.2796 66.2718 49.8069 65.9738C52.5348 64.3691 53.5663 63.7731 53.8872 63.9336C53.956 64.1399 53.1537 65.0798 50.2883 66.501C49.7152 66.7532 49.1421 67.0053 48.569 67.2575Z" fill="url(#paint81_linear_374_814)"/>
<path d="M5.17485 47.3141C5.93132 49.0333 5.81671 50.638 4.94561 50.2712C3.89113 49.8127 2.60742 46.7639 3.2722 45.6636C3.84529 45.0676 4.7393 46.2596 5.17485 47.3141Z" fill="url(#paint82_linear_374_814)"/>
<path d="M10.8599 54.5121C11.0203 54.7184 11.0662 54.8788 10.9974 54.9705C10.516 55.429 10.1263 55.8875 9.80539 56.323C9.55324 56.6898 9.34693 57.0336 9.18646 57.3775C9.14061 57.4004 9.07184 57.4463 8.84261 57.1941C8.42999 56.7586 8.04029 56.3001 7.67351 55.8416C6.09179 53.8244 5.42701 51.8988 6.0001 50.936C6.73365 50.1795 8.17783 51.0048 9.75955 53.0908C10.1034 53.5493 10.4702 54.0307 10.8599 54.5121Z" fill="url(#paint83_linear_374_814)"/>
<path d="M10.6306 43.2566C11.2954 45.1593 10.4472 46.8098 9.11768 46.1908C7.62765 45.5031 6.77949 42.546 8.15489 41.5144C9.2323 40.9414 10.2639 42.1792 10.6306 43.2566Z" fill="url(#paint84_linear_374_814)"/>
<path d="M16.1323 50.913C16.2698 51.1423 16.2469 51.3027 16.1323 51.3944C14.6881 52.1738 13.4273 52.9762 12.3728 53.7785C12.2582 53.8473 12.0977 53.7785 11.9373 53.5722C11.5705 53.0908 11.2037 52.6094 10.8599 52.1051C9.43862 49.9503 9.34692 47.933 10.6077 46.9473C12.006 46.2137 13.7712 47.1307 15.1695 49.3542C15.4904 49.8815 15.8113 50.3858 16.1323 50.913Z" fill="url(#paint85_linear_374_814)"/>
<path d="M18.7685 39.4742C19.2957 41.5373 17.7369 43.1649 16.1094 42.248C14.4818 41.331 14.115 38.4885 15.926 37.5945C17.416 37.0673 18.4705 38.3739 18.7685 39.4742Z" fill="url(#paint86_linear_374_814)"/>
<path d="M23.697 47.5891C23.7887 47.8413 23.7429 48.0018 23.5595 48.0935C21.6797 48.7812 19.9376 49.5147 18.3558 50.2712C18.1725 50.317 18.012 50.2483 17.8744 50.0419C17.5535 49.5147 17.2555 49.0104 16.9575 48.4602C15.7884 46.1679 16.201 44.1048 17.9891 43.2108C19.8688 42.5689 21.8173 43.6463 22.9405 45.9616C23.2156 46.5117 23.4449 47.0619 23.697 47.5891Z" fill="url(#paint87_linear_374_814)"/>
<path d="M14.2984 59.2801C15.3758 60.3346 15.9489 61.5037 15.1007 61.5266C13.8858 61.5495 11.1579 59.0967 11.708 58.111C12.1894 57.6067 13.519 58.5236 14.2984 59.2801Z" fill="url(#paint88_linear_374_814)"/>
<path d="M22.1841 64.2316C22.4821 64.415 22.4592 64.4838 22.4592 64.5296C22.1382 64.8276 21.8861 65.1256 21.6568 65.4236C21.4734 65.6528 21.3588 65.905 21.2442 66.1113C21.1984 66.1342 21.1296 66.1572 20.8087 66.0196C20.2585 65.7675 19.7313 65.4924 19.1811 65.2173C16.6366 63.819 15.8113 62.5123 16.1323 61.8934C16.7283 61.3432 18.3329 61.8246 20.6482 63.2917C21.1525 63.6356 21.6568 63.9336 22.1841 64.2316Z" fill="url(#paint89_linear_374_814)"/>
<path d="M18.6309 56.0479C19.6854 57.4004 19.525 58.5924 18.3329 58.409C16.6137 58.1798 14.5047 55.5894 15.7197 54.6496C16.6824 54.1682 18.012 55.2456 18.6309 56.0479Z" fill="url(#paint90_linear_374_814)"/>
<path d="M25.7143 61.8246C25.9435 62.0309 25.8977 62.0997 25.8518 62.1685C24.889 62.6957 24.0638 63.2229 23.3532 63.7502C23.2844 63.7731 23.1698 63.796 22.8947 63.6126C22.3904 63.2917 21.909 62.9708 21.4276 62.6269C19.1123 60.9306 18.8602 59.5323 19.6396 58.9133C20.717 58.3632 22.505 59.0509 24.4306 60.7014C24.8661 61.0911 25.3017 61.4808 25.7143 61.8246Z" fill="url(#paint91_linear_374_814)"/>
<path d="M25.0954 53.0449C25.806 54.4662 25.2787 55.8645 23.7429 55.429C21.8173 54.8788 20.6711 52.2884 22.0007 51.4861C22.0465 51.4632 22.1153 51.4403 22.1612 51.4173C23.3073 51.0047 24.5452 51.9446 25.0954 53.0449Z" fill="url(#paint92_linear_374_814)"/>
<path d="M30.7804 59.6011C30.895 59.7845 30.895 59.8991 30.8033 59.9678C29.5654 60.4263 28.3963 60.9077 27.3419 61.412C27.2272 61.4579 27.0668 61.3891 26.8834 61.2286C26.4708 60.8619 26.0811 60.4722 25.6914 60.0825C24.0867 58.3861 23.9033 56.7586 25.2329 56.0709C26.6771 55.5895 28.4651 56.4606 29.8634 58.3403C30.1844 58.7758 30.4824 59.1884 30.7804 59.6011Z" fill="url(#paint93_linear_374_814)"/>
<path d="M26.998 67.0512C27.2272 67.1429 29.1299 67.9223 28.7631 68.1515C28.0296 68.587 23.9492 67.1658 24.0867 66.5239C24.0867 66.501 24.1097 66.4781 24.1097 66.4781C24.5223 66.0884 26.5854 66.8907 26.998 67.0512Z" fill="url(#paint94_linear_374_814)"/>
<path d="M35.984 69.0684C36.1903 69.0914 36.2591 69.1143 36.3508 69.1372C36.282 69.2518 36.1903 69.3435 36.1216 69.4352C36.0757 69.504 36.0299 69.5728 35.984 69.6415C35.9382 69.6415 35.8923 69.6645 35.5255 69.6645C34.9066 69.6415 34.2877 69.5957 33.6687 69.5498C30.7345 69.2748 29.5196 68.6787 29.6342 68.3578C30.0468 68.0369 31.9036 68.3807 34.2418 68.7934C34.8378 68.8851 35.4109 68.9767 35.984 69.0684Z" fill="url(#paint95_linear_374_814)"/>
<path d="M29.4737 65.2173C30.1385 65.6299 31.2159 66.4552 30.5282 66.5698C29.2445 66.7761 26.0123 65.011 26.5395 64.392C26.5625 64.3691 26.5854 64.3462 26.6083 64.3462C27.2502 64.0253 28.6943 64.7359 29.4737 65.2173Z" fill="url(#paint96_linear_374_814)"/>
<path d="M37.1302 68.2661C37.3594 68.3349 37.3823 68.3578 37.4282 68.3808C37.1302 68.5412 36.878 68.7017 36.6488 68.8851C36.6029 68.8851 36.5342 68.908 36.2132 68.8392C35.6631 68.7475 35.09 68.6329 34.5398 68.5183C31.8119 67.8764 31.0555 67.1429 31.3993 66.822C32.1329 66.501 33.9897 67.1429 35.686 67.7847C36.1903 67.9681 36.6717 68.1286 37.1302 68.2661Z" fill="url(#paint97_linear_374_814)"/>
<path d="M33.1415 63.498C33.7604 64.1628 34.2418 65.0568 33.3707 65.0339C32.0641 64.9651 29.7488 63.1542 30.4136 62.4206C30.4594 62.3748 30.5282 62.3289 30.5741 62.306C31.3535 62.0539 32.4538 62.7645 33.1415 63.498Z" fill="url(#paint98_linear_374_814)"/>
<path d="M38.7807 67.5555C38.9412 67.6701 38.9412 67.6931 38.9641 67.716C38.5744 67.8535 38.2076 68.014 37.8867 68.1744C37.8408 68.1744 37.7721 68.1744 37.5199 68.0828C37.0844 67.9223 36.6488 67.7389 36.1903 67.5326C34.1502 66.5927 33.6458 65.7216 34.2189 65.4007C34.9754 65.1715 36.1674 65.6758 37.795 66.8678C38.1388 67.12 38.4598 67.3492 38.7807 67.5555Z" fill="url(#paint99_linear_374_814)"/>
<defs>
<linearGradient id="paint0_linear_374_814" x1="12.7426" y1="4.00686" x2="119.237" y2="75.4797" gradientUnits="userSpaceOnUse">
<stop stop-color="#29ABE2"/>
<stop offset="1" stop-color="#2E3192"/>
</linearGradient>
<linearGradient id="paint1_linear_374_814" x1="1.34769" y1="20.9853" x2="107.842" y2="92.4581" gradientUnits="userSpaceOnUse">
<stop stop-color="#29ABE2"/>
<stop offset="1" stop-color="#2E3192"/>
</linearGradient>
<linearGradient id="paint2_linear_374_814" x1="-6.77558" y1="33.089" x2="99.7189" y2="104.562" gradientUnits="userSpaceOnUse">
<stop stop-color="#29ABE2"/>
<stop offset="1" stop-color="#2E3192"/>
</linearGradient>
<linearGradient id="paint3_linear_374_814" x1="16.8358" y1="-2.09195" x2="123.33" y2="69.3809" gradientUnits="userSpaceOnUse">
<stop stop-color="#29ABE2"/>
<stop offset="1" stop-color="#2E3192"/>
</linearGradient>
<linearGradient id="paint4_linear_374_814" x1="15.1051" y1="0.486807" x2="121.6" y2="71.9596" gradientUnits="userSpaceOnUse">
<stop stop-color="#29ABE2"/>
<stop offset="1" stop-color="#2E3192"/>
</linearGradient>
<linearGradient id="paint5_linear_374_814" x1="19.237" y1="-5.66982" x2="125.731" y2="65.803" gradientUnits="userSpaceOnUse">
<stop stop-color="#29ABE2"/>
<stop offset="1" stop-color="#2E3192"/>
</linearGradient>
<linearGradient id="paint6_linear_374_814" x1="18.2924" y1="-4.26237" x2="124.787" y2="67.2105" gradientUnits="userSpaceOnUse">
<stop stop-color="#29ABE2"/>
<stop offset="1" stop-color="#2E3192"/>
</linearGradient>
<linearGradient id="paint7_linear_374_814" x1="21.4383" y1="-8.9497" x2="127.933" y2="62.523" gradientUnits="userSpaceOnUse">
<stop stop-color="#29ABE2"/>
<stop offset="1" stop-color="#2E3192"/>
</linearGradient>
<linearGradient id="paint8_linear_374_814" x1="21.2405" y1="-8.65493" x2="127.735" y2="62.8179" gradientUnits="userSpaceOnUse">
<stop stop-color="#29ABE2"/>
<stop offset="1" stop-color="#2E3192"/>
</linearGradient>
<linearGradient id="paint9_linear_374_814" x1="23.0353" y1="-11.3292" x2="129.53" y2="60.1436" gradientUnits="userSpaceOnUse">
<stop stop-color="#29ABE2"/>
<stop offset="1" stop-color="#2E3192"/>
</linearGradient>
<linearGradient id="paint10_linear_374_814" x1="23.4784" y1="-11.9894" x2="129.973" y2="59.4834" gradientUnits="userSpaceOnUse">
<stop stop-color="#29ABE2"/>
<stop offset="1" stop-color="#2E3192"/>
</linearGradient>
<linearGradient id="paint11_linear_374_814" x1="13.2277" y1="3.2841" x2="119.722" y2="74.7569" gradientUnits="userSpaceOnUse">
<stop stop-color="#29ABE2"/>
<stop offset="1" stop-color="#2E3192"/>
</linearGradient>
<linearGradient id="paint12_linear_374_814" x1="10.6817" y1="7.0776" x2="117.176" y2="78.5504" gradientUnits="userSpaceOnUse">
<stop stop-color="#29ABE2"/>
<stop offset="1" stop-color="#2E3192"/>
</linearGradient>
<linearGradient id="paint13_linear_374_814" x1="17.0788" y1="-2.45402" x2="123.573" y2="69.0187" gradientUnits="userSpaceOnUse">
<stop stop-color="#29ABE2"/>
<stop offset="1" stop-color="#2E3192"/>
</linearGradient>
<linearGradient id="paint14_linear_374_814" x1="15.0055" y1="0.635103" x2="121.5" y2="72.1079" gradientUnits="userSpaceOnUse">
<stop stop-color="#29ABE2"/>
<stop offset="1" stop-color="#2E3192"/>
</linearGradient>
<linearGradient id="paint15_linear_374_814" x1="20.6039" y1="-7.70649" x2="127.098" y2="63.7663" gradientUnits="userSpaceOnUse">
<stop stop-color="#29ABE2"/>
<stop offset="1" stop-color="#2E3192"/>
</linearGradient>
<linearGradient id="paint16_linear_374_814" x1="18.9683" y1="-5.26941" x2="125.463" y2="66.2034" gradientUnits="userSpaceOnUse">
<stop stop-color="#29ABE2"/>
<stop offset="1" stop-color="#2E3192"/>
</linearGradient>
<linearGradient id="paint17_linear_374_814" x1="23.2036" y1="-11.58" x2="129.698" y2="59.8928" gradientUnits="userSpaceOnUse">
<stop stop-color="#29ABE2"/>
<stop offset="1" stop-color="#2E3192"/>
</linearGradient>
<linearGradient id="paint18_linear_374_814" x1="21.9441" y1="-9.70325" x2="128.439" y2="61.7695" gradientUnits="userSpaceOnUse">
<stop stop-color="#29ABE2"/>
<stop offset="1" stop-color="#2E3192"/>
</linearGradient>
<linearGradient id="paint19_linear_374_814" x1="24.6437" y1="-13.7257" x2="131.138" y2="57.7471" gradientUnits="userSpaceOnUse">
<stop stop-color="#29ABE2"/>
<stop offset="1" stop-color="#2E3192"/>
</linearGradient>
<linearGradient id="paint20_linear_374_814" x1="23.6551" y1="-12.2527" x2="130.15" y2="59.2201" gradientUnits="userSpaceOnUse">
<stop stop-color="#29ABE2"/>
<stop offset="1" stop-color="#2E3192"/>
</linearGradient>
<linearGradient id="paint21_linear_374_814" x1="8.12596" y1="10.8857" x2="114.62" y2="82.3585" gradientUnits="userSpaceOnUse">
<stop stop-color="#29ABE2"/>
<stop offset="1" stop-color="#2E3192"/>
</linearGradient>
<linearGradient id="paint22_linear_374_814" x1="5.08109" y1="15.4225" x2="111.576" y2="86.8954" gradientUnits="userSpaceOnUse">
<stop stop-color="#29ABE2"/>
<stop offset="1" stop-color="#2E3192"/>
</linearGradient>
<linearGradient id="paint23_linear_374_814" x1="12.7784" y1="3.95349" x2="119.273" y2="75.4263" gradientUnits="userSpaceOnUse">
<stop stop-color="#29ABE2"/>
<stop offset="1" stop-color="#2E3192"/>
</linearGradient>
<linearGradient id="paint24_linear_374_814" x1="9.81033" y1="8.37599" x2="116.305" y2="79.8488" gradientUnits="userSpaceOnUse">
<stop stop-color="#29ABE2"/>
<stop offset="1" stop-color="#2E3192"/>
</linearGradient>
<linearGradient id="paint25_linear_374_814" x1="17.0387" y1="-2.39426" x2="123.533" y2="69.0785" gradientUnits="userSpaceOnUse">
<stop stop-color="#29ABE2"/>
<stop offset="1" stop-color="#2E3192"/>
</linearGradient>
<linearGradient id="paint26_linear_374_814" x1="14.156" y1="1.90093" x2="120.65" y2="73.3737" gradientUnits="userSpaceOnUse">
<stop stop-color="#29ABE2"/>
<stop offset="1" stop-color="#2E3192"/>
</linearGradient>
<linearGradient id="paint27_linear_374_814" x1="20.1763" y1="-7.06943" x2="126.671" y2="64.4035" gradientUnits="userSpaceOnUse">
<stop stop-color="#29ABE2"/>
<stop offset="1" stop-color="#2E3192"/>
</linearGradient>
<linearGradient id="paint28_linear_374_814" x1="17.4476" y1="-3.00361" x2="123.942" y2="68.4693" gradientUnits="userSpaceOnUse">
<stop stop-color="#29ABE2"/>
<stop offset="1" stop-color="#2E3192"/>
</linearGradient>
<linearGradient id="paint29_linear_374_814" x1="21.9121" y1="-9.65559" x2="128.407" y2="61.8172" gradientUnits="userSpaceOnUse">
<stop stop-color="#29ABE2"/>
<stop offset="1" stop-color="#2E3192"/>
</linearGradient>
<linearGradient id="paint30_linear_374_814" x1="19.3712" y1="-5.86976" x2="125.866" y2="65.603" gradientUnits="userSpaceOnUse">
<stop stop-color="#29ABE2"/>
<stop offset="1" stop-color="#2E3192"/>
</linearGradient>
<linearGradient id="paint31_linear_374_814" x1="22.1829" y1="-10.0592" x2="128.677" y2="61.4136" gradientUnits="userSpaceOnUse">
<stop stop-color="#29ABE2"/>
<stop offset="1" stop-color="#2E3192"/>
</linearGradient>
<linearGradient id="paint32_linear_374_814" x1="19.7217" y1="-6.39205" x2="126.216" y2="65.0809" gradientUnits="userSpaceOnUse">
<stop stop-color="#29ABE2"/>
<stop offset="1" stop-color="#2E3192"/>
</linearGradient>
<linearGradient id="paint33_linear_374_814" x1="9.20967" y1="9.27098" x2="115.704" y2="80.7438" gradientUnits="userSpaceOnUse">
<stop stop-color="#29ABE2"/>
<stop offset="1" stop-color="#2E3192"/>
</linearGradient>
<linearGradient id="paint34_linear_374_814" x1="14.4646" y1="1.44116" x2="120.959" y2="72.914" gradientUnits="userSpaceOnUse">
<stop stop-color="#29ABE2"/>
<stop offset="1" stop-color="#2E3192"/>
</linearGradient>
<linearGradient id="paint35_linear_374_814" x1="11.9899" y1="5.12838" x2="118.484" y2="76.6012" gradientUnits="userSpaceOnUse">
<stop stop-color="#29ABE2"/>
<stop offset="1" stop-color="#2E3192"/>
</linearGradient>
<linearGradient id="paint36_linear_374_814" x1="5.90667" y1="14.1924" x2="112.401" y2="85.6652" gradientUnits="userSpaceOnUse">
<stop stop-color="#29ABE2"/>
<stop offset="1" stop-color="#2E3192"/>
</linearGradient>
<linearGradient id="paint37_linear_374_814" x1="2.53844" y1="19.2111" x2="109.033" y2="90.6839" gradientUnits="userSpaceOnUse">
<stop stop-color="#29ABE2"/>
<stop offset="1" stop-color="#2E3192"/>
</linearGradient>
<linearGradient id="paint38_linear_374_814" x1="9.39469" y1="8.99524" x2="115.889" y2="80.468" gradientUnits="userSpaceOnUse">
<stop stop-color="#29ABE2"/>
<stop offset="1" stop-color="#2E3192"/>
</linearGradient>
<linearGradient id="paint39_linear_374_814" x1="6.39895" y1="13.459" x2="112.893" y2="84.9317" gradientUnits="userSpaceOnUse">
<stop stop-color="#29ABE2"/>
<stop offset="1" stop-color="#2E3192"/>
</linearGradient>
<linearGradient id="paint40_linear_374_814" x1="-4.15267" y1="29.1809" x2="102.342" y2="100.654" gradientUnits="userSpaceOnUse">
<stop stop-color="#29ABE2"/>
<stop offset="1" stop-color="#2E3192"/>
</linearGradient>
<linearGradient id="paint41_linear_374_814" x1="-7.26245" y1="33.8144" x2="99.232" y2="105.287" gradientUnits="userSpaceOnUse">
<stop stop-color="#29ABE2"/>
<stop offset="1" stop-color="#2E3192"/>
</linearGradient>
<linearGradient id="paint42_linear_374_814" x1="-0.728019" y1="24.0781" x2="105.766" y2="95.5509" gradientUnits="userSpaceOnUse">
<stop stop-color="#29ABE2"/>
<stop offset="1" stop-color="#2E3192"/>
</linearGradient>
<linearGradient id="paint43_linear_374_814" x1="-3.86505" y1="28.7523" x2="102.629" y2="100.225" gradientUnits="userSpaceOnUse">
<stop stop-color="#29ABE2"/>
<stop offset="1" stop-color="#2E3192"/>
</linearGradient>
<linearGradient id="paint44_linear_374_814" x1="3.4925" y1="17.7896" x2="109.987" y2="89.2623" gradientUnits="userSpaceOnUse">
<stop stop-color="#29ABE2"/>
<stop offset="1" stop-color="#2E3192"/>
</linearGradient>
<linearGradient id="paint45_linear_374_814" x1="0.386991" y1="22.4168" x2="106.881" y2="93.8896" gradientUnits="userSpaceOnUse">
<stop stop-color="#29ABE2"/>
<stop offset="1" stop-color="#2E3192"/>
</linearGradient>
<linearGradient id="paint46_linear_374_814" x1="1.92064" y1="20.1316" x2="108.415" y2="91.6044" gradientUnits="userSpaceOnUse">
<stop stop-color="#29ABE2"/>
<stop offset="1" stop-color="#2E3192"/>
</linearGradient>
<linearGradient id="paint47_linear_374_814" x1="-0.820524" y1="24.216" x2="105.674" y2="95.6887" gradientUnits="userSpaceOnUse">
<stop stop-color="#29ABE2"/>
<stop offset="1" stop-color="#2E3192"/>
</linearGradient>
<linearGradient id="paint48_linear_374_814" x1="6.50124" y1="13.3065" x2="112.996" y2="84.7793" gradientUnits="userSpaceOnUse">
<stop stop-color="#29ABE2"/>
<stop offset="1" stop-color="#2E3192"/>
</linearGradient>
<linearGradient id="paint49_linear_374_814" x1="3.39877" y1="17.9292" x2="109.893" y2="89.402" gradientUnits="userSpaceOnUse">
<stop stop-color="#29ABE2"/>
<stop offset="1" stop-color="#2E3192"/>
</linearGradient>
<linearGradient id="paint50_linear_374_814" x1="10.6929" y1="7.06096" x2="117.187" y2="78.5338" gradientUnits="userSpaceOnUse">
<stop stop-color="#29ABE2"/>
<stop offset="1" stop-color="#2E3192"/>
</linearGradient>
<linearGradient id="paint51_linear_374_814" x1="7.2784" y1="12.1485" x2="113.773" y2="83.6214" gradientUnits="userSpaceOnUse">
<stop stop-color="#29ABE2"/>
<stop offset="1" stop-color="#2E3192"/>
</linearGradient>
<linearGradient id="paint52_linear_374_814" x1="13.7765" y1="2.46644" x2="120.271" y2="73.9392" gradientUnits="userSpaceOnUse">
<stop stop-color="#29ABE2"/>
<stop offset="1" stop-color="#2E3192"/>
</linearGradient>
<linearGradient id="paint53_linear_374_814" x1="10.2347" y1="7.74363" x2="116.729" y2="79.2165" gradientUnits="userSpaceOnUse">
<stop stop-color="#29ABE2"/>
<stop offset="1" stop-color="#2E3192"/>
</linearGradient>
<linearGradient id="paint54_linear_374_814" x1="15.4847" y1="-0.0790783" x2="121.979" y2="71.3939" gradientUnits="userSpaceOnUse">
<stop stop-color="#29ABE2"/>
<stop offset="1" stop-color="#2E3192"/>
</linearGradient>
<linearGradient id="paint55_linear_374_814" x1="11.9709" y1="5.15671" x2="118.465" y2="76.6295" gradientUnits="userSpaceOnUse">
<stop stop-color="#29ABE2"/>
<stop offset="1" stop-color="#2E3192"/>
</linearGradient>
<linearGradient id="paint56_linear_374_814" x1="15.7501" y1="-0.474089" x2="122.244" y2="70.9984" gradientUnits="userSpaceOnUse">
<stop stop-color="#29ABE2"/>
<stop offset="1" stop-color="#2E3192"/>
</linearGradient>
<linearGradient id="paint57_linear_374_814" x1="12.2823" y1="4.69277" x2="118.777" y2="76.1655" gradientUnits="userSpaceOnUse">
<stop stop-color="#29ABE2"/>
<stop offset="1" stop-color="#2E3192"/>
</linearGradient>
<linearGradient id="paint58_linear_374_814" x1="-3.14052" y1="27.6727" x2="103.354" y2="99.1455" gradientUnits="userSpaceOnUse">
<stop stop-color="#29ABE2"/>
<stop offset="1" stop-color="#2E3192"/>
</linearGradient>
<linearGradient id="paint59_linear_374_814" x1="-5.15729" y1="30.6777" x2="101.337" y2="102.151" gradientUnits="userSpaceOnUse">
<stop stop-color="#29ABE2"/>
<stop offset="1" stop-color="#2E3192"/>
</linearGradient>
<linearGradient id="paint60_linear_374_814" x1="0.517148" y1="22.2228" x2="107.012" y2="93.6956" gradientUnits="userSpaceOnUse">
<stop stop-color="#29ABE2"/>
<stop offset="1" stop-color="#2E3192"/>
</linearGradient>
<linearGradient id="paint61_linear_374_814" x1="-2.17479" y1="26.2338" x2="104.32" y2="97.7066" gradientUnits="userSpaceOnUse">
<stop stop-color="#29ABE2"/>
<stop offset="1" stop-color="#2E3192"/>
</linearGradient>
<linearGradient id="paint62_linear_374_814" x1="3.8612" y1="17.2402" x2="110.356" y2="88.713" gradientUnits="userSpaceOnUse">
<stop stop-color="#29ABE2"/>
<stop offset="1" stop-color="#2E3192"/>
</linearGradient>
<linearGradient id="paint63_linear_374_814" x1="0.579541" y1="22.1298" x2="107.074" y2="93.6026" gradientUnits="userSpaceOnUse">
<stop stop-color="#29ABE2"/>
<stop offset="1" stop-color="#2E3192"/>
</linearGradient>
<linearGradient id="paint64_linear_374_814" x1="6.31898" y1="13.578" x2="112.813" y2="85.0509" gradientUnits="userSpaceOnUse">
<stop stop-color="#29ABE2"/>
<stop offset="1" stop-color="#2E3192"/>
</linearGradient>
<linearGradient id="paint65_linear_374_814" x1="2.68067" y1="18.9991" x2="109.175" y2="90.472" gradientUnits="userSpaceOnUse">
<stop stop-color="#29ABE2"/>
<stop offset="1" stop-color="#2E3192"/>
</linearGradient>
<linearGradient id="paint66_linear_374_814" x1="7.67865" y1="11.5522" x2="114.173" y2="83.025" gradientUnits="userSpaceOnUse">
<stop stop-color="#29ABE2"/>
<stop offset="1" stop-color="#2E3192"/>
</linearGradient>
<linearGradient id="paint67_linear_374_814" x1="3.91635" y1="17.1581" x2="110.411" y2="88.6308" gradientUnits="userSpaceOnUse">
<stop stop-color="#29ABE2"/>
<stop offset="1" stop-color="#2E3192"/>
</linearGradient>
<linearGradient id="paint68_linear_374_814" x1="7.89294" y1="11.2327" x2="114.388" y2="82.7056" gradientUnits="userSpaceOnUse">
<stop stop-color="#29ABE2"/>
<stop offset="1" stop-color="#2E3192"/>
</linearGradient>
<linearGradient id="paint69_linear_374_814" x1="4.1368" y1="16.8295" x2="110.631" y2="88.3024" gradientUnits="userSpaceOnUse">
<stop stop-color="#29ABE2"/>
<stop offset="1" stop-color="#2E3192"/>
</linearGradient>
<linearGradient id="paint70_linear_374_814" x1="-6.72761" y1="33.0175" x2="99.7668" y2="104.49" gradientUnits="userSpaceOnUse">
<stop stop-color="#29ABE2"/>
<stop offset="1" stop-color="#2E3192"/>
</linearGradient>
<linearGradient id="paint71_linear_374_814" x1="-7.71706" y1="34.4917" x2="98.7775" y2="105.965" gradientUnits="userSpaceOnUse">
<stop stop-color="#29ABE2"/>
<stop offset="1" stop-color="#2E3192"/>
</linearGradient>
<linearGradient id="paint72_linear_374_814" x1="-4.6246" y1="29.884" x2="101.87" y2="101.357" gradientUnits="userSpaceOnUse">
<stop stop-color="#29ABE2"/>
<stop offset="1" stop-color="#2E3192"/>
</linearGradient>
<linearGradient id="paint73_linear_374_814" x1="-6.499" y1="32.6769" x2="99.9955" y2="104.15" gradientUnits="userSpaceOnUse">
<stop stop-color="#29ABE2"/>
<stop offset="1" stop-color="#2E3192"/>
</linearGradient>
<linearGradient id="paint74_linear_374_814" x1="-2.70671" y1="27.0265" x2="103.788" y2="98.4992" gradientUnits="userSpaceOnUse">
<stop stop-color="#29ABE2"/>
<stop offset="1" stop-color="#2E3192"/>
</linearGradient>
<linearGradient id="paint75_linear_374_814" x1="-5.36148" y1="30.982" x2="101.133" y2="102.455" gradientUnits="userSpaceOnUse">
<stop stop-color="#29ABE2"/>
<stop offset="1" stop-color="#2E3192"/>
</linearGradient>
<linearGradient id="paint76_linear_374_814" x1="-1.30081" y1="24.9315" x2="105.194" y2="96.4044" gradientUnits="userSpaceOnUse">
<stop stop-color="#29ABE2"/>
<stop offset="1" stop-color="#2E3192"/>
</linearGradient>
<linearGradient id="paint77_linear_374_814" x1="-4.49737" y1="29.6945" x2="101.997" y2="101.167" gradientUnits="userSpaceOnUse">
<stop stop-color="#29ABE2"/>
<stop offset="1" stop-color="#2E3192"/>
</linearGradient>
<linearGradient id="paint78_linear_374_814" x1="-0.519893" y1="23.7679" x2="105.975" y2="95.2407" gradientUnits="userSpaceOnUse">
<stop stop-color="#29ABE2"/>
<stop offset="1" stop-color="#2E3192"/>
</linearGradient>
<linearGradient id="paint79_linear_374_814" x1="-3.99333" y1="28.9434" x2="102.501" y2="100.416" gradientUnits="userSpaceOnUse">
<stop stop-color="#29ABE2"/>
<stop offset="1" stop-color="#2E3192"/>
</linearGradient>
<linearGradient id="paint80_linear_374_814" x1="-0.398778" y1="23.5876" x2="106.096" y2="95.0604" gradientUnits="userSpaceOnUse">
<stop stop-color="#29ABE2"/>
<stop offset="1" stop-color="#2E3192"/>
</linearGradient>
<linearGradient id="paint81_linear_374_814" x1="-3.90585" y1="28.8131" x2="102.589" y2="100.286" gradientUnits="userSpaceOnUse">
<stop stop-color="#29ABE2"/>
<stop offset="1" stop-color="#2E3192"/>
</linearGradient>
<linearGradient id="paint82_linear_374_814" x1="-10.1624" y1="38.1354" x2="96.3321" y2="109.608" gradientUnits="userSpaceOnUse">
<stop stop-color="#29ABE2"/>
<stop offset="1" stop-color="#2E3192"/>
</linearGradient>
<linearGradient id="paint83_linear_374_814" x1="-11.8448" y1="40.6421" x2="94.6497" y2="112.115" gradientUnits="userSpaceOnUse">
<stop stop-color="#29ABE2"/>
<stop offset="1" stop-color="#2E3192"/>
</linearGradient>
<linearGradient id="paint84_linear_374_814" x1="-6.79383" y1="33.1162" x2="99.7007" y2="104.589" gradientUnits="userSpaceOnUse">
<stop stop-color="#29ABE2"/>
<stop offset="1" stop-color="#2E3192"/>
</linearGradient>
<linearGradient id="paint85_linear_374_814" x1="-8.79097" y1="36.0919" x2="97.7035" y2="107.565" gradientUnits="userSpaceOnUse">
<stop stop-color="#29ABE2"/>
<stop offset="1" stop-color="#2E3192"/>
</linearGradient>
<linearGradient id="paint86_linear_374_814" x1="-2.63959" y1="26.9263" x2="103.855" y2="98.3992" gradientUnits="userSpaceOnUse">
<stop stop-color="#29ABE2"/>
<stop offset="1" stop-color="#2E3192"/>
</linearGradient>
<linearGradient id="paint87_linear_374_814" x1="-5.00101" y1="30.4449" x2="101.493" y2="101.918" gradientUnits="userSpaceOnUse">
<stop stop-color="#29ABE2"/>
<stop offset="1" stop-color="#2E3192"/>
</linearGradient>
<linearGradient id="paint88_linear_374_814" x1="-12.7992" y1="42.0642" x2="93.6952" y2="113.537" gradientUnits="userSpaceOnUse">
<stop stop-color="#29ABE2"/>
<stop offset="1" stop-color="#2E3192"/>
</linearGradient>
<linearGradient id="paint89_linear_374_814" x1="-12.9083" y1="42.2267" x2="93.5861" y2="113.7" gradientUnits="userSpaceOnUse">
<stop stop-color="#29ABE2"/>
<stop offset="1" stop-color="#2E3192"/>
</linearGradient>
<linearGradient id="paint90_linear_374_814" x1="-10.1084" y1="38.0549" x2="96.386" y2="109.528" gradientUnits="userSpaceOnUse">
<stop stop-color="#29ABE2"/>
<stop offset="1" stop-color="#2E3192"/>
</linearGradient>
<linearGradient id="paint91_linear_374_814" x1="-10.7519" y1="39.0138" x2="95.7425" y2="110.487" gradientUnits="userSpaceOnUse">
<stop stop-color="#29ABE2"/>
<stop offset="1" stop-color="#2E3192"/>
</linearGradient>
<linearGradient id="paint92_linear_374_814" x1="-6.78552" y1="33.1038" x2="99.7089" y2="104.577" gradientUnits="userSpaceOnUse">
<stop stop-color="#29ABE2"/>
<stop offset="1" stop-color="#2E3192"/>
</linearGradient>
<linearGradient id="paint93_linear_374_814" x1="-8.0958" y1="35.0561" x2="98.3986" y2="106.529" gradientUnits="userSpaceOnUse">
<stop stop-color="#29ABE2"/>
<stop offset="1" stop-color="#2E3192"/>
</linearGradient>
<linearGradient id="paint94_linear_374_814" x1="-12.3132" y1="41.34" x2="94.1812" y2="112.813" gradientUnits="userSpaceOnUse">
<stop stop-color="#29ABE2"/>
<stop offset="1" stop-color="#2E3192"/>
</linearGradient>
<linearGradient id="paint95_linear_374_814" x1="-10.9507" y1="39.3099" x2="95.5438" y2="110.783" gradientUnits="userSpaceOnUse">
<stop stop-color="#29ABE2"/>
<stop offset="1" stop-color="#2E3192"/>
</linearGradient>
<linearGradient id="paint96_linear_374_814" x1="-10.7722" y1="39.0439" x2="95.7223" y2="110.517" gradientUnits="userSpaceOnUse">
<stop stop-color="#29ABE2"/>
<stop offset="1" stop-color="#2E3192"/>
</linearGradient>
<linearGradient id="paint97_linear_374_814" x1="-10.0598" y1="37.9825" x2="96.4346" y2="109.455" gradientUnits="userSpaceOnUse">
<stop stop-color="#29ABE2"/>
<stop offset="1" stop-color="#2E3192"/>
</linearGradient>
<linearGradient id="paint98_linear_374_814" x1="-8.83998" y1="36.165" x2="97.6544" y2="107.638" gradientUnits="userSpaceOnUse">
<stop stop-color="#29ABE2"/>
<stop offset="1" stop-color="#2E3192"/>
</linearGradient>
<linearGradient id="paint99_linear_374_814" x1="-9.00117" y1="36.4051" x2="97.4933" y2="107.878" gradientUnits="userSpaceOnUse">
<stop stop-color="#29ABE2"/>
<stop offset="1" stop-color="#2E3192"/>
</linearGradient>
</defs>
</svg>
