<svg width="21" height="21" viewBox="0 0 21 21" fill="none" xmlns="http://www.w3.org/2000/svg">
<path d="M1.75 10.0624C1.75 9.3376 2.3376 8.75 3.06244 8.75H3.49992V11.3749H3.06244C2.3376 11.3749 1.75 10.7873 1.75 10.0624Z" stroke="#6A7A8C" stroke-width="1.5"/>
<path d="M3.5 9.23529C3.5 8.00077 4.50078 7 5.73529 7H8.74975V13.1247H5.7353C4.50078 13.1247 3.5 12.1239 3.5 10.8894V9.23529Z" stroke="#6A7A8C" stroke-width="1.5"/>
<path d="M5.25 13.125H7.87487V17.0623C7.87487 17.7871 7.28728 18.3747 6.56244 18.3747C5.8376 18.3747 5.25 17.7871 5.25 17.0623V13.125Z" stroke="#6A7A8C" stroke-width="1.5"/>
<path d="M8.75 7.98215C8.75 6.97268 9.42658 6.08848 10.401 5.82459L15.6087 4.41416C15.6797 4.39492 15.7497 4.44842 15.7497 4.52204V15.6044C15.7497 15.678 15.6797 15.7315 15.6087 15.7122L10.401 14.3018C9.42658 14.0379 8.75 13.1537 8.75 12.1443V7.98215Z" stroke="#6A7A8C" stroke-width="1.5"/>
<rect x="15.749" y="2.625" width="3.49983" height="14.8743" rx="1.74992" stroke="#6A7A8C" stroke-width="1.5"/>
</svg>
