<svg width="21" height="21" viewBox="0 0 21 21" fill="none" xmlns="http://www.w3.org/2000/svg">
<path d="M1.75 10.0635C1.75 9.3386 2.33762 8.75098 3.06248 8.75098H3.5V11.3759H3.06248C2.33762 11.3759 1.75 10.7883 1.75 10.0635Z" fill="white"/>
<path d="M4.375 9.23529C4.375 8.00077 5.37578 7 6.61029 7H8.74999V13.1249H6.61029C5.37577 13.1249 4.375 12.1242 4.375 10.8896V9.23529Z" fill="white"/>
<path d="M5.25 13.999H7.87499V17.0615C7.87499 17.7864 7.28737 18.374 6.5625 18.374C5.83762 18.374 5.25 17.7864 5.25 17.0615V13.999Z" fill="white"/>
<path d="M9.625 7.84118C9.625 6.89939 10.2153 6.05863 11.1011 5.73876L14.7253 4.43004C14.7981 4.40374 14.875 4.45771 14.875 4.53516V15.5917C14.875 15.6691 14.7981 15.7231 14.7253 15.6968L11.1011 14.3881C10.2153 14.0682 9.625 13.2274 9.625 12.2857V7.84118Z" fill="white"/>
<rect x="15.75" y="2.625" width="3.49999" height="14.8748" rx="1.75" fill="white"/>
</svg>
