<svg width="21" height="21" viewBox="0 0 21 21" fill="none" xmlns="http://www.w3.org/2000/svg">
<path d="M18.375 9.31875V10.5C18.375 14.2123 18.375 16.0685 17.2217 17.2217C16.0685 18.375 14.2123 18.375 10.5 18.375C6.78769 18.375 4.93153 18.375 3.77827 17.2217C2.625 16.0685 2.625 14.2123 2.625 10.5C2.625 6.78769 2.625 4.93153 3.77827 3.77827C4.93153 2.625 6.78769 2.625 10.5 2.625H11.6812" stroke="#6A7A8C" stroke-width="1.5" stroke-linecap="round"/>
<path d="M14.1645 3.77051C14.1645 3.77051 14.2283 4.85626 15.1864 5.81427C16.1444 6.77229 17.2301 6.83616 17.2301 6.83616M9.00477 13.3249L7.67578 11.9959" stroke="#6A7A8C" stroke-width="1.5"/>
<path d="M14.6741 3.25992L14.1631 3.77086L9.46578 8.4682C9.14763 8.78635 8.98856 8.9454 8.85171 9.12085C8.69032 9.32773 8.55196 9.55161 8.43907 9.78849C8.34336 9.98931 8.27222 10.2027 8.12994 10.6296L7.67439 11.9963L7.37962 12.8805C7.30961 13.0906 7.36427 13.3222 7.52084 13.4788C7.67742 13.6354 7.90901 13.69 8.11907 13.62L9.00336 13.3252L10.37 12.8697C10.7969 12.7274 11.0103 12.6563 11.2111 12.5606C11.448 12.4476 11.6719 12.3093 11.8788 12.1479C12.0542 12.0111 12.2133 11.852 12.5314 11.5338L17.2287 6.83651L17.7397 6.32557C18.5862 5.47902 18.5862 4.10648 17.7397 3.25992C16.8932 2.41336 15.5206 2.41336 14.6741 3.25992Z" stroke="#6A7A8C" stroke-width="1.5"/>
</svg>
