<svg width="21" height="21" viewBox="0 0 21 21" fill="none" xmlns="http://www.w3.org/2000/svg">
<path d="M17.7401 3.25992C18.5866 4.10648 18.5866 5.47902 17.7401 6.32557L17.3498 6.71582C17.2362 6.69122 17.0931 6.65377 16.93 6.59718C16.4935 6.44573 15.9198 6.15951 15.3801 5.61986C14.8405 5.08022 14.5543 4.50652 14.4029 4.06999C14.3462 3.9069 14.3088 3.7638 14.2842 3.65016L14.6745 3.25992C15.521 2.41336 16.8936 2.41336 17.7401 3.25992Z" fill="white"/>
<path d="M12.5314 11.5347C12.2133 11.8529 12.0542 12.0119 11.8788 12.1488C11.6719 12.3102 11.448 12.4485 11.2111 12.5614C11.0103 12.6571 10.7969 12.7282 10.37 12.8705L8.11907 13.6209C7.90901 13.6909 7.67742 13.6362 7.52085 13.4797C7.36427 13.323 7.30961 13.0915 7.37962 12.8814L8.12994 10.6305C8.27222 10.2036 8.34337 9.99018 8.43907 9.78937C8.55196 9.55249 8.69032 9.3286 8.85171 9.12173C8.98856 8.94627 9.14763 8.78723 9.46578 8.46907L13.3372 4.59766C13.5449 5.14433 13.9089 5.82047 14.5444 6.45601C15.18 7.09154 15.8562 7.45558 16.4029 7.66331L12.5314 11.5347Z" fill="white"/>
<path d="M17.2217 17.2217C18.375 16.0685 18.375 14.2123 18.375 10.5C18.375 9.28071 18.375 8.26172 18.3341 7.40205L13.324 12.4123C13.0473 12.689 12.8395 12.8969 12.6056 13.0793C12.3311 13.2935 12.034 13.4771 11.7197 13.6268C11.4519 13.7545 11.173 13.8473 10.8018 13.971L8.493 14.7406C7.85847 14.9521 7.15891 14.787 6.68596 14.314C6.21302 13.8411 6.04788 13.1415 6.25938 12.507L7.02898 10.1982C7.15262 9.827 7.24551 9.54807 7.37311 9.28032C7.52292 8.96595 7.70652 8.6689 7.92067 8.39434C8.10309 8.16048 8.311 7.95266 8.58774 7.67606L13.5979 2.66586C12.7383 2.625 11.7193 2.625 10.5 2.625C6.78769 2.625 4.93153 2.625 3.77827 3.77827C2.625 4.93153 2.625 6.78769 2.625 10.5C2.625 14.2123 2.625 16.0685 3.77827 17.2217C4.93153 18.375 6.78769 18.375 10.5 18.375C14.2123 18.375 16.0685 18.375 17.2217 17.2217Z" fill="white"/>
</svg>
