<svg width="21" height="21" viewBox="0 0 21 21" fill="none" xmlns="http://www.w3.org/2000/svg">
<path d="M11.8875 2.74489C11.5985 2.625 11.2323 2.625 10.4997 2.625C9.76707 2.625 9.40082 2.625 9.11184 2.74489C8.72661 2.90474 8.42053 3.21136 8.26095 3.59727C8.18811 3.77344 8.1596 3.97832 8.14844 4.27717C8.13205 4.71635 7.90722 5.12286 7.52727 5.34261C7.14733 5.56234 6.68348 5.55414 6.29561 5.34877C6.03167 5.20902 5.8403 5.13131 5.65157 5.10643C5.23815 5.0519 4.82004 5.16413 4.48922 5.41842C4.24111 5.60914 4.05796 5.92691 3.69167 6.56244C3.32539 7.19799 3.14224 7.51575 3.10142 7.82637C3.047 8.24051 3.15903 8.65934 3.41288 8.99076C3.52873 9.14203 3.69157 9.26914 3.9443 9.42821C4.31583 9.6621 4.55489 10.0605 4.55486 10.5C4.55484 10.9395 4.3158 11.3378 3.9443 11.5716C3.69153 11.7308 3.52867 11.858 3.4128 12.0092C3.15895 12.3406 3.04692 12.7594 3.10135 13.1736C3.14216 13.4842 3.32531 13.802 3.6916 14.4375C4.05789 15.073 4.24104 15.3908 4.48914 15.5815C4.81996 15.8358 5.23807 15.948 5.65149 15.8935C5.8402 15.8686 6.03157 15.7909 6.29549 15.6512C6.68339 15.4458 7.14727 15.4376 7.52724 15.6573C7.9072 15.8771 8.13205 16.2836 8.14844 16.7229C8.1596 17.0217 8.18811 17.2266 8.26095 17.4028C8.42053 17.7886 8.72661 18.0953 9.11184 18.2551C9.40082 18.375 9.76707 18.375 10.4997 18.375C11.2323 18.375 11.5985 18.375 11.8875 18.2551C12.2727 18.0953 12.5788 17.7886 12.7383 17.4028C12.8112 17.2266 12.8397 17.0217 12.8509 16.7228C12.8672 16.2836 13.0921 15.8771 13.472 15.6573C13.8519 15.4375 14.3158 15.4458 14.7038 15.6512C14.9677 15.7909 15.159 15.8685 15.3477 15.8934C15.7611 15.948 16.1793 15.8358 16.5101 15.5815C16.7582 15.3908 16.9413 15.073 17.3076 14.4374C17.6739 13.8019 17.8571 13.4842 17.8979 13.1736C17.9523 12.7594 17.8403 12.3405 17.5864 12.0092C17.4706 11.8579 17.3077 11.7307 17.0549 11.5716C16.6835 11.3378 16.4444 10.9394 16.4444 10.4999C16.4444 10.0604 16.6835 9.66218 17.0549 9.42837C17.3078 9.26922 17.4706 9.14211 17.5865 8.99076C17.8404 8.6594 17.9524 8.24056 17.898 7.82641C17.8572 7.51581 17.674 7.19804 17.3077 6.5625C16.9414 5.92696 16.7582 5.60919 16.5101 5.41847C16.1793 5.16418 15.7612 5.05196 15.3478 5.10648C15.1591 5.13137 14.9678 5.20907 14.7038 5.34881C14.3159 5.55418 13.852 5.56239 13.4721 5.34263C13.0921 5.12288 12.8672 4.71633 12.8509 4.27713C12.8397 3.9783 12.8112 3.77343 12.7383 3.59727C12.5788 3.21136 12.2727 2.90474 11.8875 2.74489Z" stroke="#6A7A8C" stroke-width="1.5"/>
<path d="M10.499 12.8617C11.8015 12.8617 12.8574 11.804 12.8574 10.4992C12.8574 9.19441 11.8015 8.13672 10.499 8.13672C9.19647 8.13672 8.14062 9.19441 8.14062 10.4992C8.14062 11.804 9.19647 12.8617 10.499 12.8617Z" stroke="#6A7A8C" stroke-width="1.5"/>
</svg>
