<svg width="20" height="20" viewBox="0 0 20 20" fill="none" xmlns="http://www.w3.org/2000/svg">
<path d="M13.1496 5.57041C13.1496 6.02286 13.0681 6.47089 12.9098 6.88891C12.7515 7.30692 12.5195 7.68674 12.227 8.00668C11.9345 8.32661 11.5872 8.5804 11.2051 8.75355C10.8229 8.92669 10.4133 9.01581 9.99961 9.01581C9.58595 9.01581 9.17633 8.92669 8.79416 8.75355C8.41198 8.5804 8.06473 8.32661 7.77222 8.00668C7.47972 7.68674 7.24769 7.30692 7.08939 6.88891C6.93109 6.47089 6.84961 6.02286 6.84961 5.57041C6.84961 4.65663 7.18148 3.78028 7.77222 3.13414C8.36296 2.488 9.16418 2.125 9.99961 2.125C10.835 2.125 11.6363 2.488 12.227 3.13414C12.8177 3.78028 13.1496 4.65663 13.1496 5.57041Z" fill="white"/>
<path opacity="0.4" d="M16.75 5.57087C16.75 6.22357 16.5129 6.84953 16.091 7.31106C15.669 7.77259 15.0967 8.03187 14.5 8.03187C13.9033 8.03187 13.331 7.77259 12.909 7.31106C12.4871 6.84953 12.25 6.22357 12.25 5.57087C12.25 4.91817 12.4871 4.2922 12.909 3.83067C13.331 3.36915 13.9033 3.10986 14.5 3.10986C15.0967 3.10986 15.669 3.36915 16.091 3.83067C16.5129 4.2922 16.75 4.91817 16.75 5.57087ZM3.25 5.57087C3.25 6.22357 3.48705 6.84953 3.90901 7.31106C4.33097 7.77259 4.90326 8.03187 5.5 8.03187C6.09674 8.03187 6.66903 7.77259 7.09099 7.31106C7.51295 6.84953 7.75 6.22357 7.75 5.57087C7.75 4.91817 7.51295 4.2922 7.09099 3.83067C6.66903 3.36915 6.09674 3.10986 5.5 3.10986C4.90326 3.10986 4.33097 3.36915 3.90901 3.83067C3.48705 4.2922 3.25 4.91817 3.25 5.57087Z" fill="white"/>
<path d="M15.3996 14.4295C15.3996 16.3324 12.9822 17.8749 9.99961 17.8749C7.01701 17.8749 4.59961 16.3324 4.59961 14.4295C4.59961 12.5267 7.01701 10.9841 9.99961 10.9841C12.9822 10.9841 15.3996 12.5267 15.3996 14.4295Z" fill="white"/>
<path opacity="0.4" d="M19 14.43C19 15.7885 17.389 16.891 15.4 16.891C13.411 16.891 11.8 15.7885 11.8 14.43C11.8 13.0715 13.411 11.969 15.4 11.969C17.389 11.969 19 13.0715 19 14.43ZM1 14.43C1 15.7885 2.611 16.891 4.6 16.891C6.589 16.891 8.2 15.7885 8.2 14.43C8.2 13.0715 6.589 11.969 4.6 11.969C2.611 11.969 1 13.0715 1 14.43Z" fill="white"/>
</svg>
