<svg width="21" height="21" viewBox="0 0 21 21" fill="none" xmlns="http://www.w3.org/2000/svg">
<path d="M10.5004 9.25658C12.3316 9.25658 13.8161 7.77205 13.8161 5.94079C13.8161 4.10953 12.3316 2.625 10.5004 2.625C8.6691 2.625 7.18457 4.10953 7.18457 5.94079C7.18457 7.77205 8.6691 9.25658 10.5004 9.25658Z" stroke="#6A7A8C" stroke-width="1.5"/>
<path d="M15.4736 8.42794C16.8471 8.42794 17.9605 7.50011 17.9605 6.35557C17.9605 5.21104 16.8471 4.2832 15.4736 4.2832" stroke="#6A7A8C" stroke-width="1.5" stroke-linecap="round"/>
<path d="M5.52688 8.42794C4.15344 8.42794 3.04004 7.50011 3.04004 6.35557C3.04004 5.21104 4.15344 4.2832 5.52688 4.2832" stroke="#6A7A8C" stroke-width="1.5" stroke-linecap="round"/>
<path d="M10.5001 18.375C13.2469 18.375 15.4737 16.8904 15.4737 15.0592C15.4737 13.228 13.2469 11.7434 10.5001 11.7434C7.75316 11.7434 5.52637 13.228 5.52637 15.0592C5.52637 16.8904 7.75316 18.375 10.5001 18.375Z" stroke="#6A7A8C" stroke-width="1.5"/>
<path d="M17.1318 16.7172C18.586 16.3984 19.6187 15.5908 19.6187 14.6449C19.6187 13.699 18.586 12.8914 17.1318 12.5725" stroke="#6A7A8C" stroke-width="1.5" stroke-linecap="round"/>
<path d="M3.86868 16.7172C2.4145 16.3984 1.38184 15.5908 1.38184 14.6449C1.38184 13.699 2.4145 12.8914 3.86868 12.5725" stroke="#6A7A8C" stroke-width="1.5" stroke-linecap="round"/>
</svg>
