<svg width="21" height="21" viewBox="0 0 21 21" fill="none" xmlns="http://www.w3.org/2000/svg">
<path d="M15.4228 12.5516C15.4773 12.5289 15.5314 12.5053 15.585 12.4808C15.882 12.3451 16.2154 12.2943 16.5308 12.3787L16.9214 12.4833C17.7142 12.6953 18.4394 11.9701 18.2274 11.1773L18.1228 10.7867C18.0384 10.4713 18.0892 10.1379 18.2249 9.84087C18.5328 9.16673 18.7044 8.41722 18.7044 7.62763C18.7044 4.68246 16.3169 2.29492 13.3717 2.29492C11.1547 2.29492 9.25372 3.64778 8.44922 5.57298" stroke="#6A7A8C" stroke-width="1.3"/>
<path d="M6.00293 12.1406H6.01031M8.8668 12.1406H8.87418M11.7309 12.1406H11.7383" stroke="#6A7A8C" stroke-width="1.3" stroke-linecap="round" stroke-linejoin="round"/>
<path d="M8.85923 18.7028C12.4841 18.7028 15.4226 15.7644 15.4226 12.1395C15.4226 8.51467 12.4841 5.57617 8.85923 5.57617C5.2344 5.57617 2.2959 8.51467 2.2959 12.1395C2.2959 13.1531 2.52568 14.1131 2.93599 14.9701C3.07701 15.2647 3.12653 15.5985 3.04211 15.9139L2.77298 16.9198C2.56085 17.7126 3.28615 18.4378 4.07895 18.2258L5.08481 17.9566C5.4003 17.8722 5.73403 17.9217 6.0286 18.0627C6.88564 18.473 7.8456 18.7028 8.85923 18.7028Z" stroke="#6A7A8C" stroke-width="1.3"/>
</svg>
