<svg width="21" height="21" viewBox="0 0 21 21" fill="none" xmlns="http://www.w3.org/2000/svg">
<path d="M13.3889 6V5.4C13.3889 4.55992 13.3889 4.13988 13.2315 3.81901C13.093 3.53677 12.872 3.3073 12.6002 3.16349C12.2912 3 11.8867 3 11.0778 3H9.92222C9.11326 3 8.70878 3 8.39979 3.16349C8.128 3.3073 7.90703 3.53677 7.76855 3.81901C7.61111 4.13988 7.61111 4.55992 7.61111 5.4V6M9.05556 10.125V13.875M11.9444 10.125V13.875M4 6H17M15.5556 6V14.4C15.5556 15.6601 15.5556 16.2902 15.3194 16.7715C15.1117 17.1948 14.7802 17.539 14.3725 17.7548C13.9091 18 13.3023 18 12.0889 18H8.91111C7.69766 18 7.09094 18 6.62747 17.7548C6.21978 17.539 5.88832 17.1948 5.6806 16.7715C5.44444 16.2902 5.44444 15.6601 5.44444 14.4V6" stroke="#6A7A8C" stroke-width="1.3" stroke-linecap="round" stroke-linejoin="round"/>
</svg>
