<svg width="24" height="24" viewBox="0 0 24 24" fill="none" xmlns="http://www.w3.org/2000/svg">
<path d="M9.79004 13.356C10.1571 13.8473 10.6255 14.2538 11.1634 14.548C11.7012 14.8421 12.296 15.0171 12.9073 15.0609C13.5186 15.1047 14.1322 15.0164 14.7064 14.802C15.2807 14.5876 15.8021 14.252 16.2354 13.8181L18.7999 11.251C19.5784 10.444 20.0092 9.36323 19.9995 8.2414C19.9898 7.11957 19.5403 6.04645 18.7478 5.25317C17.9554 4.45988 16.8833 4.00991 15.7627 4.00016C14.642 3.99041 13.5624 4.42167 12.7563 5.20105L11.286 6.66432" stroke="black" stroke-width="1.65" stroke-linecap="round" stroke-linejoin="round"/>
<path d="M13.2096 11.6435C12.8425 11.1522 12.3742 10.7457 11.8363 10.4516C11.2985 10.1574 10.7037 9.98249 10.0924 9.93867C9.48107 9.89484 8.86748 9.98313 8.29324 10.1976C7.71901 10.412 7.19756 10.7475 6.76426 11.1815L4.19979 13.7486C3.42123 14.5555 2.99042 15.6363 3.00016 16.7582C3.0099 17.88 3.4594 18.9531 4.25186 19.7464C5.04431 20.5397 6.11632 20.9897 7.23697 20.9994C8.35763 21.0091 9.43728 20.5779 10.2434 19.7985L11.7051 18.3352" stroke="black" stroke-width="1.65" stroke-linecap="round" stroke-linejoin="round"/>
</svg>
