<svg width="21" height="21" viewBox="0 0 21 21" fill="none" xmlns="http://www.w3.org/2000/svg">
<path d="M10.5 3C8.51155 3.00218 6.60516 3.79306 5.19911 5.19911C3.79306 6.60516 3.00218 8.51155 3 10.5V16.8C3 17.1183 3.12643 17.4235 3.35147 17.6485C3.57652 17.8736 3.88174 18 4.2 18H10.5C12.4891 18 14.3968 17.2098 15.8033 15.8033C17.2098 14.3968 18 12.4891 18 10.5C18 8.51088 17.2098 6.60322 15.8033 5.1967C14.3968 3.79018 12.4891 3 10.5 3ZM10.5 16.8H4.2V10.5C4.2 9.25398 4.56949 8.03594 5.26174 6.99991C5.95399 5.96388 6.93792 5.15639 8.08909 4.67956C9.24027 4.20273 10.507 4.07797 11.7291 4.32105C12.9511 4.56414 14.0737 5.16416 14.9548 6.04523C15.8358 6.9263 16.4359 8.04885 16.6789 9.27093C16.922 10.493 16.7973 11.7597 16.3204 12.9109C15.8436 14.0621 15.0361 15.046 14.0001 15.7383C12.9641 16.4305 11.746 16.8 10.5 16.8ZM11.4 10.8C11.4 10.978 11.3472 11.152 11.2483 11.3C11.1494 11.448 11.0089 11.5634 10.8444 11.6315C10.68 11.6996 10.499 11.7174 10.3244 11.6827C10.1498 11.648 9.98947 11.5623 9.8636 11.4364C9.73774 11.3105 9.65202 11.1502 9.61729 10.9756C9.58257 10.801 9.60039 10.62 9.66851 10.4556C9.73663 10.2911 9.85198 10.1506 9.99999 10.0517C10.148 9.95278 10.322 9.9 10.5 9.9C10.7387 9.9 10.9676 9.99482 11.1364 10.1636C11.3052 10.3324 11.4 10.5613 11.4 10.8ZM8.1 10.8C8.1 10.978 8.04722 11.152 7.94832 11.3C7.84943 11.448 7.70887 11.5634 7.54442 11.6315C7.37996 11.6996 7.199 11.7174 7.02442 11.6827C6.84984 11.648 6.68947 11.5623 6.5636 11.4364C6.43774 11.3105 6.35202 11.1502 6.31729 10.9756C6.28257 10.801 6.30039 10.62 6.36851 10.4556C6.43663 10.2911 6.55198 10.1506 6.69999 10.0517C6.84799 9.95278 7.022 9.9 7.2 9.9C7.43869 9.9 7.66761 9.99482 7.8364 10.1636C8.00518 10.3324 8.1 10.5613 8.1 10.8ZM14.7 10.8C14.7 10.978 14.6472 11.152 14.5483 11.3C14.4494 11.448 14.3089 11.5634 14.1444 11.6315C13.98 11.6996 13.799 11.7174 13.6244 11.6827C13.4498 11.648 13.2895 11.5623 13.1636 11.4364C13.0377 11.3105 12.952 11.1502 12.9173 10.9756C12.8826 10.801 12.9004 10.62 12.9685 10.4556C13.0366 10.2911 13.152 10.1506 13.3 10.0517C13.448 9.95278 13.622 9.9 13.8 9.9C14.0387 9.9 14.2676 9.99482 14.4364 10.1636C14.6052 10.3324 14.7 10.5613 14.7 10.8Z" fill="#6A7A8C"/>
</svg>
