<svg width="24" height="24" viewBox="0 0 24 24" fill="none" xmlns="http://www.w3.org/2000/svg">
<path d="M20.9995 16.7355V19.2997C21.0004 19.5378 20.9517 19.7734 20.8563 19.9915C20.7609 20.2096 20.6211 20.4054 20.4457 20.5664C20.2702 20.7273 20.0632 20.8498 19.8376 20.9261C19.6121 21.0023 19.3732 21.0307 19.1361 21.0092C16.5059 20.7234 13.9794 19.8247 11.7596 18.3851C9.69433 17.0728 7.94337 15.3218 6.63104 13.2566C5.18648 11.0267 4.28751 8.48792 4.00694 5.84587C3.98558 5.6095 4.01367 5.37128 4.08942 5.14636C4.16518 4.92144 4.28693 4.71476 4.44694 4.53948C4.60694 4.3642 4.80169 4.22415 5.01879 4.12826C5.23589 4.03237 5.47057 3.98273 5.7079 3.9825H8.27217C8.68698 3.97842 9.08913 4.12532 9.40366 4.39581C9.71818 4.6663 9.92362 5.04193 9.98168 5.45268C10.0899 6.27331 10.2906 7.07905 10.58 7.85455C10.695 8.16048 10.7199 8.49298 10.6517 8.81262C10.5836 9.13227 10.4252 9.42568 10.1954 9.65808L9.10983 10.7436C10.3266 12.8835 12.0984 14.6554 14.2384 15.8722L15.3239 14.7866C15.5563 14.5568 15.8497 14.3984 16.1694 14.3303C16.489 14.2621 16.8215 14.287 17.1274 14.402C17.9029 14.6913 18.7087 14.8921 19.5293 15.0003C19.9445 15.0589 20.3237 15.268 20.5948 15.5879C20.8658 15.9079 21.0099 16.3163 20.9995 16.7355Z" stroke="black" stroke-width="1.5" stroke-linecap="round" stroke-linejoin="round"/>
</svg>
