<svg width="28" height="28" viewBox="0 0 28 28" fill="none" xmlns="http://www.w3.org/2000/svg">
<path d="M17.2781 5.7083L16.7181 4.93946C16.3934 4.49355 15.9678 4.13071 15.4761 3.88055C14.9844 3.6304 14.4406 3.5 13.889 3.5C13.3373 3.5 12.7935 3.6304 12.3018 3.88055C11.8101 4.13071 11.3846 4.49355 11.0598 4.93946L10.4998 5.7083L9.5618 5.56013C9.01673 5.47433 8.45911 5.51862 7.93442 5.68937C7.40973 5.86013 6.93285 6.15252 6.54268 6.54268C6.15252 6.93285 5.86013 7.40973 5.68937 7.93442C5.51862 8.45911 5.47433 9.01673 5.56013 9.5618L5.7083 10.4998L4.93946 11.0598C4.49355 11.3846 4.13071 11.8101 3.88055 12.3018C3.6304 12.7935 3.5 13.3373 3.5 13.889C3.5 14.4406 3.6304 14.9844 3.88055 15.4761C4.13071 15.9678 4.49355 16.3934 4.93946 16.7181L5.7083 17.2781L5.56013 18.2161C5.47433 18.7612 5.51862 19.3188 5.68937 19.8435C5.86013 20.3682 6.15252 20.8451 6.54268 21.2352C6.93285 21.6254 7.40973 21.9178 7.93442 22.0886C8.45911 22.2593 9.01673 22.3036 9.5618 22.2178L10.4998 22.0696L11.0598 22.8385C11.3846 23.2844 11.8101 23.6472 12.3018 23.8974C12.7935 24.1475 13.3373 24.2779 13.889 24.2779C14.4406 24.2779 14.9844 24.1475 15.4761 23.8974C15.9678 23.6472 16.3934 23.2844 16.7181 22.8385L17.2781 22.0696L18.2161 22.2178C18.7612 22.3036 19.3188 22.2593 19.8435 22.0886C20.3682 21.9178 20.8451 21.6254 21.2352 21.2352C21.6254 20.8451 21.9178 20.3682 22.0886 19.8435C22.2593 19.3188 22.3036 18.7612 22.2178 18.2161L22.0696 17.2781L22.8385 16.7181C23.2844 16.3934 23.6472 15.9678 23.8974 15.4761C24.1475 14.9844 24.2779 14.4406 24.2779 13.889C24.2779 13.3373 24.1475 12.7935 23.8974 12.3018C23.6472 11.8101 23.2844 11.3846 22.8385 11.0598L22.0696 10.4998L22.2178 9.5618C22.3036 9.01673 22.2593 8.45911 22.0886 7.93442C21.9178 7.40973 21.6254 6.93285 21.2352 6.54268C20.8451 6.15252 20.3682 5.86013 19.8435 5.68937C19.3188 5.51862 18.7612 5.47433 18.2161 5.56013L17.2781 5.7083Z" fill="#007AFF"/>
<path d="M10.5 13.9993L12.4798 15.9791C12.675 16.1744 12.9916 16.1744 13.1869 15.9791L17.5 11.666" stroke="white" stroke-width="1.5" stroke-linecap="round"/>
</svg>
